<svg width="284" height="52" viewBox="0 0 284 52" fill="none" xmlns="http://www.w3.org/2000/svg">
    <path d="M8.22565 32.6573H19.0021V39.1025H0V2.97437H8.22565V32.6573Z" fill="black"/>
    <path d="M22.2438 7.73131C21.3323 6.86902 20.8766 5.80944 20.8766 4.53794C20.8766 3.26644 21.3323 2.1557 22.2438 1.29342C23.1553 0.431141 24.3315 0 25.7796 0C27.2277 0 28.3524 0.431141 29.2639 1.29342C30.1754 2.1557 30.6312 3.23721 30.6312 4.53794C30.6312 5.83867 30.1681 6.86902 29.2639 7.73131C28.3524 8.59359 27.1836 9.02473 25.7796 9.02473C24.3756 9.02473 23.1553 8.59359 22.2438 7.73131ZM29.8667 11.86V39.095H21.6411V11.86H29.8667Z" fill="black"/>
    <path d="M47.9939 18.7948H43.5687V39.0949H35.343V18.7948H32.3586V11.86H35.343V11.0781C35.343 7.73126 36.284 5.18095 38.1805 3.44178C40.0697 1.7026 42.841 0.833008 46.5017 0.833008C47.1118 0.833008 47.5602 0.847623 47.8469 0.88416V7.95049C46.2738 7.84818 45.1638 8.07471 44.5317 8.63739C43.8921 9.18545 43.5687 10.1793 43.5687 11.6115V11.86H47.9939V18.7948Z" fill="black"/>
    <path d="M75.6921 27.4767H57.0796C57.2046 29.1721 57.7486 30.4582 58.6895 31.357C59.6304 32.2558 60.7918 32.6943 62.1738 32.6943C64.2321 32.6943 65.6508 31.8101 66.452 30.0563H75.2069C74.7585 31.8466 73.9426 33.4542 72.7738 34.8865C71.605 36.3188 70.1348 37.4368 68.3706 38.2552C66.6064 39.0664 64.6364 39.4756 62.4605 39.4756C59.8289 39.4756 57.4913 38.9056 55.433 37.7656C53.3748 36.633 51.7723 35.0034 50.6182 32.8843C49.4641 30.7651 48.8907 28.2952 48.8907 25.4672C48.8907 22.6392 49.4568 20.1692 50.5962 18.0501C51.7355 15.9382 53.3307 14.3087 55.3816 13.1687C57.4398 12.036 59.7921 11.4587 62.4458 11.4587C65.0995 11.4587 67.3488 12.0068 69.3703 13.1175C71.3918 14.221 72.9723 15.8067 74.1043 17.8455C75.2437 19.8989 75.8097 22.2884 75.8097 25.0141C75.8097 25.796 75.7583 26.6071 75.6701 27.4548L75.6848 27.4694L75.6921 27.4767ZM67.4224 22.8365C67.4224 21.4042 66.9372 20.2716 65.9742 19.4239C65.0113 18.5762 63.8131 18.1524 62.3649 18.1524C60.9168 18.1524 59.8289 18.5616 58.8806 19.3727C57.9397 20.1839 57.3516 21.3384 57.1237 22.8365H67.415H67.4224Z" fill="black"/>
    <path d="M83.5282 38.2623C81.6979 37.4512 80.2571 36.3405 79.1986 34.9228C78.14 33.5052 77.5446 31.9195 77.4196 30.1657H85.5497C85.6526 31.1083 86.079 31.8756 86.8435 32.4602C87.6153 33.0448 88.5563 33.3444 89.6809 33.3444C90.7101 33.3444 91.504 33.1398 92.0626 32.7306C92.6213 32.3214 92.908 31.7952 92.908 31.1449C92.908 30.363 92.5037 29.7857 91.7024 29.413C90.9012 29.0403 89.6074 28.6238 87.8065 28.1634C85.8879 27.703 84.278 27.2281 82.999 26.7238C81.7126 26.2269 80.6099 25.4158 79.6837 24.3343C78.7575 23.2382 78.2871 21.7767 78.2871 19.9206C78.2871 18.3641 78.7134 16.9391 79.5661 15.6457C80.4188 14.3596 81.6611 13.3512 83.3151 12.5912C84.969 11.8458 86.9317 11.4731 89.2031 11.4731C92.5698 11.4731 95.2235 12.3208 97.1641 14.0088C99.1048 15.7042 100.222 17.9403 100.509 20.7463H92.908C92.783 19.8037 92.3714 19.051 91.6804 18.5029C90.9894 17.9549 90.0852 17.6699 88.9679 17.6699C88.0049 17.6699 87.2625 17.8599 86.7553 18.2326C86.2481 18.6052 85.9834 19.1241 85.9834 19.7671C85.9834 20.549 86.3951 21.1336 87.211 21.5209C88.027 21.9082 89.2987 22.3028 91.0335 22.6901C93.0182 23.2089 94.6428 23.7278 95.8851 24.2247C97.1347 24.7362 98.23 25.54 99.1783 26.6654C100.119 27.7834 100.612 29.2961 100.648 31.1814C100.648 32.7744 100.207 34.1994 99.3253 35.4563C98.4506 36.7132 97.1788 37.6924 95.5249 38.4085C93.8709 39.1173 91.9597 39.4827 89.7765 39.4827C87.4389 39.4827 85.3513 39.0735 83.5282 38.2623Z" fill="black"/>
    <path d="M119.356 32.0143V39.0952H115.174C112.189 39.0952 109.866 38.3571 108.198 36.8737C106.529 35.3903 105.699 32.9715 105.699 29.6247V18.795H102.427V11.8603H105.699V2.97437H113.924V11.8603H116.82L119.753 18.795H113.917V29.727C113.917 30.5382 114.108 31.1228 114.49 31.4808C114.872 31.8389 115.519 32.0143 116.409 32.0143H119.349H119.356Z" fill="black"/>
    <path d="M150.039 11.8598L133.205 52.0217H124.362L130.515 38.1594L119.599 11.8525H128.788L134.992 28.879L141.144 11.8525H150.032L150.039 11.8598Z" fill="black"/>
    <path d="M159.948 2.97437V39.0952H151.722V2.97437H159.948Z" fill="black"/>
    <path d="M189.756 27.4767H171.144C171.269 29.1721 171.813 30.4582 172.753 31.357C173.694 32.2558 174.856 32.6943 176.238 32.6943C178.296 32.6943 179.722 31.8101 180.516 30.0563H189.271C188.822 31.8466 188.007 33.4542 186.838 34.8865C185.669 36.3188 184.199 37.4368 182.435 38.2552C180.67 39.0664 178.7 39.4756 176.524 39.4756C173.893 39.4756 171.555 38.9056 169.497 37.7656C167.439 36.633 165.836 35.0034 164.689 32.8843C163.535 30.7651 162.962 28.2952 162.962 25.4672C162.962 22.6392 163.528 20.1692 164.667 18.0501C165.807 15.9382 167.402 14.3087 169.453 13.1687C171.504 12.036 173.863 11.4587 176.517 11.4587C179.171 11.4587 181.42 12.0068 183.442 13.1175C185.463 14.2283 187.044 15.8067 188.176 17.8455C189.315 19.8989 189.881 22.2884 189.881 25.0141C189.881 25.796 189.83 26.6071 189.741 27.4548L189.756 27.4694V27.4767ZM181.486 22.8365C181.486 21.4042 181.001 20.2716 180.038 19.4239C179.075 18.5762 177.877 18.1524 176.429 18.1524C174.981 18.1524 173.893 18.5616 172.945 19.3727C171.996 20.1839 171.416 21.3384 171.188 22.8365H181.479H181.486Z" fill="black"/>
    <path d="M240.336 27.4767H221.723C221.848 29.1721 222.392 30.4582 223.333 31.357C224.274 32.2558 225.435 32.6943 226.817 32.6943C228.876 32.6943 230.302 31.8101 231.096 30.0563H239.851C239.402 31.8466 238.586 33.4542 237.417 34.8865C236.249 36.3188 234.778 37.4368 233.014 38.2552C231.25 39.0664 229.28 39.4756 227.104 39.4756C224.472 39.4756 222.135 38.9056 220.077 37.7656C218.026 36.633 216.416 35.0034 215.269 32.8843C214.115 30.7651 213.542 28.2952 213.542 25.4672C213.542 22.6392 214.108 20.1692 215.247 18.0501C216.386 15.9382 217.982 14.3087 220.032 13.1687C222.091 12.036 224.443 11.4587 227.097 11.4587C229.75 11.4587 232 12.0068 234.021 13.1175C236.043 14.2283 237.623 15.8067 238.755 17.8455C239.895 19.8989 240.461 22.2884 240.461 25.0141C240.461 25.796 240.409 26.6071 240.321 27.4548L240.336 27.4694V27.4767ZM232.066 22.8365C232.066 21.4042 231.581 20.2716 230.618 19.4239C229.655 18.5762 228.457 18.1524 227.009 18.1524C225.56 18.1524 224.472 18.5616 223.524 19.3727C222.583 20.1839 221.995 21.3384 221.767 22.8365H232.059H232.066Z" fill="black"/>
    <path d="M248.179 38.2623C246.349 37.4512 244.908 36.3405 243.849 34.9228C242.791 33.5052 242.196 31.9195 242.071 30.1657H250.201C250.304 31.1083 250.73 31.8756 251.494 32.4602C252.266 33.0448 253.207 33.3444 254.332 33.3444C255.361 33.3444 256.155 33.1398 256.714 32.7306C257.272 32.3214 257.559 31.7952 257.559 31.1449C257.559 30.363 257.155 29.7857 256.353 29.413C255.552 29.0403 254.258 28.6238 252.465 28.1634C250.546 27.703 248.936 27.2281 247.65 26.7238C246.363 26.2269 245.261 25.4158 244.335 24.3343C243.408 23.2382 242.938 21.7767 242.938 19.9206C242.938 18.3641 243.364 16.9391 244.217 15.6457C245.07 14.3596 246.312 13.3512 247.966 12.5912C249.62 11.8458 251.583 11.4731 253.854 11.4731C257.221 11.4731 259.874 12.3208 261.815 14.0088C263.756 15.7042 264.873 17.9403 265.16 20.7463H257.559C257.434 19.8037 257.022 19.051 256.331 18.5029C255.64 17.9549 254.736 17.6699 253.619 17.6699C252.656 17.6699 251.913 17.8599 251.406 18.2326C250.899 18.6052 250.634 19.1241 250.634 19.7671C250.634 20.549 251.046 21.1336 251.862 21.5209C252.678 21.9082 253.95 22.3028 255.684 22.6901C257.669 23.2089 259.294 23.7278 260.536 24.2247C261.786 24.7362 262.881 25.54 263.829 26.6654C264.77 27.7834 265.263 29.2961 265.299 31.1814C265.299 32.7744 264.858 34.1994 263.976 35.4563C263.094 36.7132 261.83 37.6924 260.176 38.4085C258.522 39.1173 256.611 39.4827 254.427 39.4827C252.09 39.4827 250.002 39.0735 248.179 38.2623Z" fill="black"/>
    <path d="M284 32.0143V39.0952H279.817C276.833 39.0952 274.51 38.3571 272.841 36.8737C271.173 35.3903 270.342 32.9715 270.342 29.6247V18.795H267.064V11.8603H270.342V2.97437H278.56V11.8603H283.949V18.795H278.56V29.727C278.56 30.5382 278.751 31.1228 279.134 31.4808C279.516 31.8389 280.163 32.0143 281.052 32.0143H283.993H284Z" fill="black"/>
    <path d="M218.9 2.97437V9.51455H209.969V39.0952H201.758V9.51455H192.827V2.97437H218.893H218.9Z" fill="black"/>
</svg>
