<svg width="645" height="485" viewBox="0 0 645 485" fill="none" xmlns="http://www.w3.org/2000/svg">
<mask id="path-1-outside-1_2067_20242" maskUnits="userSpaceOnUse" x="0.14209" y="0.0161133" width="644" height="484" fill="black">
<rect fill="white" x="0.14209" y="0.0161133" width="644" height="484"/>
<path d="M2.14209 2.01611H642.142V482.016H2.14209V2.01611Z"/>
<path d="M308.542 2.01611H177.642L177.606 176.516H2.14209V307.516H177.578L177.542 482.016H308.542V307.516H642.142V176.516H308.542V2.01611Z"/>
</mask>
<path d="M2.14209 2.01611H642.142V482.016H2.14209V2.01611Z" fill="white"/>
<path d="M308.542 2.01611H177.642L177.606 176.516H2.14209V307.516H177.578L177.542 482.016H308.542V307.516H642.142V176.516H308.542V2.01611Z" fill="#002F6C"/>
<path d="M2.14209 2.01611V0.0161133H0.14209V2.01611H2.14209ZM642.142 2.01611H644.142V0.0161133H642.142V2.01611ZM642.142 482.016V484.016H644.142V482.016H642.142ZM2.14209 482.016H0.14209V484.016H2.14209V482.016ZM177.642 2.01611V0.0161133H175.643L175.642 2.0157L177.642 2.01611ZM308.542 2.01611H310.542V0.0161133H308.542V2.01611ZM177.606 176.516V178.516H179.605L179.606 176.517L177.606 176.516ZM2.14209 176.516V174.516H0.14209V176.516H2.14209ZM2.14209 307.516H0.14209V309.516H2.14209V307.516ZM177.578 307.516L179.578 307.517L179.579 305.516H177.578V307.516ZM177.542 482.016L175.542 482.016L175.542 484.016H177.542V482.016ZM308.542 482.016V484.016H310.542V482.016H308.542ZM308.542 307.516V305.516H306.542V307.516H308.542ZM642.142 307.516V309.516H644.142V307.516H642.142ZM642.142 176.516H644.142V174.516H642.142V176.516ZM308.542 176.516H306.542V178.516H308.542V176.516ZM2.14209 4.01611H642.142V0.0161133H2.14209V4.01611ZM640.142 2.01611V482.016H644.142V2.01611H640.142ZM642.142 480.016H2.14209V484.016H642.142V480.016ZM4.14209 482.016V2.01611H0.14209V482.016H4.14209ZM177.642 4.01611H308.542V0.0161133H177.642V4.01611ZM179.606 176.517L179.642 2.01653L175.642 2.0157L175.606 176.516L179.606 176.517ZM2.14209 178.516H177.606V174.516H2.14209V178.516ZM4.14209 307.516V176.516H0.14209V307.516H4.14209ZM177.578 305.516H2.14209V309.516H177.578V305.516ZM179.542 482.017L179.578 307.517L175.578 307.516L175.542 482.016L179.542 482.017ZM308.542 480.016H177.542V484.016H308.542V480.016ZM306.542 307.516V482.016H310.542V307.516H306.542ZM642.142 305.516H308.542V309.516H642.142V305.516ZM640.142 176.516V307.516H644.142V176.516H640.142ZM308.542 178.516H642.142V174.516H308.542V178.516ZM306.542 2.01611V176.516H310.542V2.01611H306.542Z" fill="#333333" mask="url(#path-1-outside-1_2067_20242)"/>
</svg>
