<svg width="641" height="481" viewBox="0 0 641 481" fill="none" xmlns="http://www.w3.org/2000/svg">
<path fill-rule="evenodd" clip-rule="evenodd" d="M0.0136719 0.862793H640.014V54.1628H0.0136719V0.862793Z" fill="#0D5EAF"/>
<path fill-rule="evenodd" clip-rule="evenodd" d="M0.0136719 54.1628H640.014V107.563H0.0136719V54.1628Z" fill="white"/>
<path fill-rule="evenodd" clip-rule="evenodd" d="M0.0136719 107.563H640.014V160.863H0.0136719V107.563Z" fill="#0D5EAF"/>
<path fill-rule="evenodd" clip-rule="evenodd" d="M0.0136719 160.863H640.014V214.163H0.0136719V160.863Z" fill="white"/>
<path d="M0.0136719 0.862793H266.714V267.563H0.0136719V0.862793Z" fill="#0D5EAF"/>
<path fill-rule="evenodd" clip-rule="evenodd" d="M0.0136719 214.163H640.014V267.563H0.0136719V214.163Z" fill="#0D5EAF"/>
<path fill-rule="evenodd" clip-rule="evenodd" d="M0.0136719 267.563H640.014V320.862H0.0136719V267.563Z" fill="white"/>
<path fill-rule="evenodd" clip-rule="evenodd" d="M0.0136719 320.863H640.014V374.163H0.0136719V320.863Z" fill="#0D5EAF"/>
<path fill-rule="evenodd" clip-rule="evenodd" d="M0.0136719 374.163H640.014V427.563H0.0136719V374.163Z" fill="white"/>
<path fill-rule="evenodd" clip-rule="evenodd" d="M106.714 0.862793H160.014V267.563H106.714V0.862793Z" fill="white"/>
<path fill-rule="evenodd" clip-rule="evenodd" d="M0.0136719 107.563H266.714V160.863H0.0136719V107.563Z" fill="white"/>
<path d="M0.0136719 427.563H640.014V480.862H0.0136719V427.563Z" fill="#0D5EAF"/>
<path d="M639.396 1.86279H1.39551V479.863H639.396V1.86279Z" stroke="#333333" stroke-width="2"/>
</svg>
