<svg width="643" height="483" viewBox="0 0 643 483" fill="none" xmlns="http://www.w3.org/2000/svg">
<path d="M256.236 2.02295H640.236V481.863H256.236V2.02295Z" fill="#FF0000"/>
<path d="M1.0459 1.86279H257.046V481.703H1.0459V1.86279Z" fill="#006600"/>
<path fill-rule="evenodd" clip-rule="evenodd" d="M340.546 307.963C308.246 306.963 160.546 214.793 159.546 199.963L167.646 186.473C182.346 207.763 333.346 297.473 348.246 294.233L340.546 307.933" fill="#FFFF00"/>
<path d="M340.546 307.963C308.246 306.963 160.546 214.793 159.546 199.963L167.646 186.473C182.346 207.763 333.346 297.473 348.246 294.233L340.546 307.933" stroke="black" stroke-width="0.6" stroke-linecap="round" stroke-linejoin="round"/>
<path fill-rule="evenodd" clip-rule="evenodd" d="M165.946 184.603C163.046 192.403 204.546 217.993 254.346 248.383C304.146 278.773 347.246 297.383 350.346 294.763L351.846 291.963C351.246 292.963 349.846 293.263 347.546 292.563C334.046 288.663 298.946 272.563 255.446 246.183C211.946 219.803 174.046 195.503 168.146 185.183C167.684 184.218 167.478 183.151 167.546 182.083H167.346L166.146 184.283L165.946 184.583V184.603ZM341.246 308.363C340.746 309.363 339.646 309.363 337.746 309.163C325.746 307.863 289.146 290.063 245.846 264.163C195.446 233.973 153.846 206.583 158.446 199.383L159.646 197.183L159.846 197.283C155.846 209.483 241.946 258.663 247.046 261.863C296.846 292.653 338.846 310.753 342.546 306.053L341.246 308.363Z" fill="#FFFF00" stroke="black" stroke-width="0.6" stroke-linecap="round" stroke-linejoin="round"/>
<path fill-rule="evenodd" clip-rule="evenodd" d="M257.246 208.993C289.446 208.693 329.246 204.593 352.246 195.403L347.246 187.403C333.746 194.903 293.746 199.893 256.946 200.593C213.546 200.193 182.846 196.103 167.446 185.803L162.846 194.403C191.046 206.403 220.046 208.893 257.246 208.993Z" fill="#FFFF00" stroke="black" stroke-width="0.6" stroke-linecap="round" stroke-linejoin="round"/>
<path fill-rule="evenodd" clip-rule="evenodd" d="M353.546 195.603C352.746 196.903 337.746 201.993 315.746 205.793C296.353 208.734 276.761 210.171 257.146 210.093C238.353 210.164 219.577 208.961 200.946 206.493C177.846 202.893 165.946 197.893 161.446 196.103L162.546 193.903C175.019 198.753 188.002 202.172 201.246 204.093C219.741 206.59 238.384 207.826 257.046 207.793C276.559 207.811 296.047 206.374 315.346 203.493C337.846 199.793 350.146 195.103 351.946 193.003L353.546 195.703V195.603ZM349.146 187.503C346.746 189.503 334.546 193.803 313.146 197.193C294.667 199.869 276.018 201.206 257.346 201.193C239.35 201.283 221.37 200.08 203.546 197.593C190.665 196.07 178.03 192.915 165.946 188.203L167.246 186.003C170.546 187.703 181.646 192.203 203.746 195.303C221.512 197.676 239.422 198.809 257.346 198.693C275.885 198.696 294.4 197.359 312.746 194.693C334.246 191.693 345.846 186.293 347.646 184.893L349.146 187.503ZM151.346 247.783C171.146 258.473 215.246 263.783 256.946 264.173C294.946 264.273 344.346 258.373 362.846 248.583L362.346 237.883C356.546 246.883 303.546 255.583 256.546 255.283C209.546 254.983 165.846 247.683 151.246 238.283V247.783" fill="#FFFF00"/>
<path d="M151.346 247.783C171.146 258.473 215.246 263.783 256.946 264.173C294.946 264.273 344.346 258.373 362.846 248.583L362.346 237.883C356.546 246.883 303.546 255.583 256.546 255.283C209.546 254.983 165.846 247.683 151.246 238.283V247.783M353.546 195.603C352.746 196.903 337.746 201.993 315.746 205.793C296.353 208.734 276.761 210.171 257.146 210.093C238.353 210.164 219.577 208.961 200.946 206.493C177.846 202.893 165.946 197.893 161.446 196.103L162.546 193.903C175.019 198.753 188.002 202.172 201.246 204.093C219.741 206.59 238.384 207.826 257.046 207.793C276.559 207.811 296.047 206.374 315.346 203.493C337.846 199.793 350.146 195.103 351.946 193.003L353.546 195.703V195.603ZM349.146 187.503C346.746 189.503 334.546 193.803 313.146 197.193C294.667 199.869 276.018 201.206 257.346 201.193C239.35 201.283 221.37 200.08 203.546 197.593C190.665 196.07 178.03 192.915 165.946 188.203L167.246 186.003C170.546 187.703 181.646 192.203 203.746 195.303C221.512 197.676 239.422 198.809 257.346 198.693C275.885 198.696 294.4 197.359 312.746 194.693C334.246 191.693 345.846 186.293 347.646 184.893L349.146 187.503Z" stroke="black" stroke-width="0.6" stroke-linecap="round" stroke-linejoin="round"/>
<path fill-rule="evenodd" clip-rule="evenodd" d="M363.846 246.283V248.783C361.046 252.183 343.646 257.173 321.846 260.783C300.189 263.902 278.326 265.373 256.446 265.183C235.699 265.362 214.97 263.924 194.446 260.883C179.131 259.104 164.167 255.052 150.046 248.863V245.963C159.746 252.363 185.946 257.153 194.746 258.553C215.178 261.498 235.803 262.902 256.446 262.753C278.192 262.901 299.918 261.431 321.446 258.353C337.146 256.063 359.446 250.163 363.846 246.263V246.283ZM363.846 237.283V239.783C361.046 243.083 343.646 248.083 321.846 251.683C300.19 254.825 278.328 256.33 256.446 256.183C235.701 256.302 214.976 254.864 194.446 251.883C179.131 250.103 164.167 246.052 150.046 239.863V236.863C159.746 243.363 186.046 248.063 194.746 249.463C215.174 252.454 235.8 253.892 256.446 253.763C278.195 253.89 299.922 252.385 321.446 249.263C337.146 247.083 359.446 241.183 363.846 237.283ZM256.846 306.063C211.246 305.863 172.146 293.663 163.846 291.663L169.846 301.063C197.896 310.991 227.494 315.834 257.246 315.363C291.946 314.363 322.246 311.663 343.546 301.263L349.746 291.463C335.246 298.363 285.746 306.063 256.746 306.063" fill="#FFFF00"/>
<path d="M256.846 306.063C211.246 305.863 172.146 293.663 163.846 291.663L169.846 301.063C197.896 310.991 227.494 315.834 257.246 315.363C291.946 314.363 322.246 311.663 343.546 301.263L349.746 291.463C335.246 298.363 285.746 306.063 256.746 306.063M363.846 246.283V248.783C361.046 252.183 343.646 257.173 321.846 260.783C300.189 263.902 278.326 265.373 256.446 265.183C235.699 265.362 214.97 263.924 194.446 260.883C179.131 259.104 164.167 255.052 150.046 248.863V245.963C159.746 252.363 185.946 257.153 194.746 258.553C215.178 261.498 235.803 262.902 256.446 262.753C278.192 262.901 299.918 261.431 321.446 258.353C337.146 256.063 359.446 250.163 363.846 246.263V246.283ZM363.846 237.283V239.783C361.046 243.083 343.646 248.083 321.846 251.683C300.19 254.825 278.328 256.33 256.446 256.183C235.701 256.302 214.976 254.864 194.446 251.883C179.131 250.103 164.167 246.052 150.046 239.863V236.863C159.746 243.363 186.046 248.063 194.746 249.463C215.174 252.454 235.8 253.892 256.446 253.763C278.195 253.89 299.922 252.385 321.446 249.263C337.146 247.083 359.446 241.183 363.846 237.283Z" stroke="black" stroke-width="0.6" stroke-linecap="round" stroke-linejoin="round"/>
<path fill-rule="evenodd" clip-rule="evenodd" d="M345.946 299.063C345.039 300.396 344.106 301.729 343.146 303.063C332.504 306.673 321.607 309.481 310.546 311.463C292.836 314.761 274.861 316.435 256.846 316.463C216.446 315.863 183.346 307.963 167.846 301.163L166.546 299.063L166.746 298.663L168.846 299.563C197.306 308.981 227.068 313.874 257.046 314.063C274.685 313.975 292.283 312.369 309.646 309.263C332.846 304.563 342.246 301.063 345.146 299.463L345.846 299.063H345.946ZM351.246 290.263C350.586 291.433 349.916 292.603 349.246 293.763C343.846 295.763 329.246 299.963 307.946 302.963C293.946 304.863 285.246 306.763 257.346 307.263C225.452 306.943 193.754 302.232 163.146 293.263L162.046 290.763C193.144 299.361 225.189 304.064 257.446 304.763C282.946 304.263 293.846 302.363 307.746 300.463C332.546 296.663 345.046 292.463 348.746 291.363V291.163L351.346 290.163L351.246 290.263Z" fill="#FFFF00" stroke="black" stroke-width="0.6" stroke-linecap="round" stroke-linejoin="round"/>
<path fill-rule="evenodd" clip-rule="evenodd" d="M351.846 239.383C351.946 269.383 336.546 296.383 324.246 308.163C306.076 325.874 281.817 335.961 256.446 336.353C226.146 336.853 197.646 317.163 189.946 308.463C172.718 290.205 162.914 266.181 162.446 241.083C164.246 208.293 177.146 185.503 195.746 169.803C213.817 154.934 236.545 146.902 259.946 147.113C273.606 147.775 286.977 151.283 299.204 157.411C311.43 163.54 322.241 172.154 330.946 182.703C343.446 197.893 348.946 214.393 351.846 239.383V239.383ZM256.646 136.863C277.507 136.861 297.899 143.049 315.241 154.643C332.584 166.237 346.096 182.717 354.067 201.994C362.038 221.272 364.11 242.482 360.02 262.938C355.93 283.394 345.863 302.177 331.093 316.908C316.322 331.639 297.513 341.657 277.046 345.692C256.579 349.727 235.375 347.599 216.118 339.576C196.862 331.554 180.418 317.998 168.87 300.625C157.322 283.252 151.189 262.844 151.246 241.983C151.146 183.983 198.546 136.823 256.646 136.823" fill="#FFFF00"/>
<path d="M256.646 136.863C277.507 136.861 297.899 143.049 315.241 154.643C332.584 166.237 346.096 182.717 354.067 201.994C362.038 221.272 364.11 242.482 360.02 262.938C355.93 283.394 345.863 302.177 331.093 316.908C316.322 331.639 297.513 341.657 277.046 345.692C256.579 349.727 235.375 347.599 216.118 339.576C196.862 331.554 180.418 317.998 168.87 300.625C157.322 283.252 151.189 262.844 151.246 241.983C151.146 183.983 198.546 136.823 256.646 136.823M351.846 239.383C351.946 269.383 336.546 296.383 324.246 308.163C306.076 325.874 281.817 335.961 256.446 336.353C226.146 336.853 197.646 317.163 189.946 308.463C172.718 290.205 162.914 266.181 162.446 241.083C164.246 208.293 177.146 185.503 195.746 169.803C213.817 154.934 236.545 146.902 259.946 147.113C273.606 147.775 286.977 151.283 299.204 157.411C311.43 163.54 322.241 172.154 330.946 182.703C343.446 197.893 348.946 214.393 351.846 239.383V239.383Z" stroke="black" stroke-width="0.6" stroke-linecap="round" stroke-linejoin="round"/>
<path fill-rule="evenodd" clip-rule="evenodd" d="M256.946 136.323C284.932 136.357 311.763 147.486 331.558 167.269C351.352 187.052 362.496 213.877 362.546 241.863C362.546 300.043 315.146 347.423 257.046 347.423C198.946 347.423 151.446 300.063 151.446 241.863C151.497 213.877 162.64 187.052 182.435 167.269C202.23 147.486 229.06 136.357 257.046 136.323H256.946ZM153.646 241.783C153.646 298.563 200.346 345.053 256.946 345.053C313.546 345.053 360.246 298.563 360.246 241.783C360.246 185.003 313.546 138.513 256.946 138.513C200.346 138.513 153.646 185.003 153.646 241.783Z" fill="#FFFF00" stroke="black" stroke-width="0.6" stroke-linecap="round" stroke-linejoin="round"/>
<path fill-rule="evenodd" clip-rule="evenodd" d="M257.046 145.113C282.698 145.113 307.299 155.303 325.438 173.441C343.576 191.58 353.766 216.181 353.766 241.833C353.766 267.485 343.576 292.086 325.438 310.224C307.299 328.363 282.698 338.553 257.046 338.553C204.046 338.553 160.346 294.963 160.346 241.783C160.457 216.173 170.681 191.644 188.793 173.538C206.905 155.432 231.437 145.215 257.046 145.113V145.113ZM162.646 241.783C162.646 293.783 205.246 336.153 257.046 336.153C308.846 336.153 351.446 293.663 351.446 241.783C351.446 189.903 308.846 147.413 257.046 147.413C232.047 147.515 208.1 157.49 190.419 175.165C172.739 192.839 162.757 216.783 162.646 241.783V241.783Z" fill="#FFFF00" stroke="black" stroke-width="0.6" stroke-linecap="round" stroke-linejoin="round"/>
<path fill-rule="evenodd" clip-rule="evenodd" d="M261.346 135.863H252.246V348.043H261.246L261.346 135.863Z" fill="#FFFF00" stroke="black" stroke-width="0.6" stroke-linecap="round" stroke-linejoin="round"/>
<path fill-rule="evenodd" clip-rule="evenodd" d="M260.346 134.623H262.646V349.243H260.446V134.623H260.346ZM251.346 134.623H253.746V349.243H251.446V134.623H251.346Z" fill="#FFFF00" stroke="black" stroke-width="0.6" stroke-linecap="round" stroke-linejoin="round"/>
<path fill-rule="evenodd" clip-rule="evenodd" d="M362.646 245.983V238.183L356.246 232.183L319.946 222.593L267.746 217.293L204.746 220.493L159.946 231.083L150.946 237.783V245.683L173.846 235.383L228.246 226.863H280.546L318.946 231.053L345.546 237.453L362.646 245.983Z" fill="#FFFF00" stroke="black" stroke-width="0.6" stroke-linecap="round" stroke-linejoin="round"/>
<path fill-rule="evenodd" clip-rule="evenodd" d="M257.046 225.593C281.946 225.593 306.046 227.883 325.346 231.593C345.146 235.593 359.046 240.593 363.846 246.093V248.863C358.046 241.863 339.346 236.863 324.846 233.863C279.462 225.796 233.006 225.864 187.646 234.063C172.646 237.063 152.546 243.063 150.046 248.863V245.963C151.346 241.963 166.346 235.963 187.346 231.663C206.246 227.963 230.646 225.573 256.946 225.573L257.046 225.593ZM257.046 216.493C279.946 216.444 302.805 218.452 325.346 222.493C345.146 226.493 359.046 231.493 363.846 237.083V239.783C358.046 232.883 339.346 227.783 324.846 224.893C305.846 221.193 281.846 218.893 256.946 218.893C233.737 218.815 210.571 220.891 187.746 225.093C173.246 227.783 152.346 233.983 150.046 239.783V236.983C151.446 232.983 166.646 226.693 187.346 222.693C206.346 218.993 230.646 216.493 257.046 216.493ZM256.446 170.303C295.746 170.103 330.046 175.803 345.746 183.803L351.446 193.803C337.846 186.403 300.846 178.803 256.546 179.803C220.446 180.103 181.846 183.803 162.546 194.203L169.346 182.803C185.246 174.503 222.646 170.303 256.446 170.303" fill="#FFFF00"/>
<path d="M256.446 170.303C295.746 170.103 330.046 175.803 345.746 183.803L351.446 193.803C337.846 186.403 300.846 178.803 256.546 179.803C220.446 180.103 181.846 183.803 162.546 194.203L169.346 182.803C185.246 174.503 222.646 170.303 256.446 170.303M257.046 225.593C281.946 225.593 306.046 227.883 325.346 231.593C345.146 235.593 359.046 240.593 363.846 246.093V248.863C358.046 241.863 339.346 236.863 324.846 233.863C279.462 225.796 233.006 225.864 187.646 234.063C172.646 237.063 152.546 243.063 150.046 248.863V245.963C151.346 241.963 166.346 235.963 187.346 231.663C206.246 227.963 230.646 225.573 256.946 225.573L257.046 225.593ZM257.046 216.493C279.946 216.444 302.805 218.452 325.346 222.493C345.146 226.493 359.046 231.493 363.846 237.083V239.783C358.046 232.883 339.346 227.783 324.846 224.893C305.846 221.193 281.846 218.893 256.946 218.893C233.737 218.815 210.571 220.891 187.746 225.093C173.246 227.783 152.346 233.983 150.046 239.783V236.983C151.446 232.983 166.646 226.693 187.346 222.693C206.346 218.993 230.646 216.493 257.046 216.493Z" stroke="black" stroke-width="0.6" stroke-linecap="round" stroke-linejoin="round"/>
<path fill-rule="evenodd" clip-rule="evenodd" d="M257.046 178.503C277.565 178.158 298.076 179.597 318.346 182.803C334.346 185.803 349.646 190.203 351.846 192.603L353.546 195.603C348.246 192.203 334.946 188.303 317.946 185.103C300.946 181.903 279.246 180.803 256.946 180.903C231.646 180.803 211.946 182.103 195.146 185.103C183.565 186.723 172.32 190.201 161.846 195.403L163.546 192.303C169.546 189.303 178.846 185.603 194.646 182.703C212.146 179.503 232.046 178.603 257.046 178.503ZM257.046 169.503C278.446 169.303 299.646 170.503 316.146 173.503C326.836 175.091 337.181 178.472 346.746 183.503L349.246 187.503C345.046 182.803 329.246 178.303 315.146 175.903C298.746 173.003 278.446 171.903 257.046 171.703C237.126 171.532 217.225 173.004 197.546 176.103C187.258 177.541 177.266 180.613 167.946 185.203L170.146 181.903C175.946 178.903 185.346 176.103 197.146 173.803C216.955 170.664 236.992 169.192 257.046 169.403V169.503ZM309.446 285.773C292.113 282.772 274.534 281.433 256.946 281.773C191.446 282.573 170.346 295.263 167.746 299.063L162.746 291.063C179.546 279.063 215.146 272.273 257.346 272.873C279.246 273.273 298.146 274.773 313.946 277.873L309.446 285.873" fill="#FFFF00"/>
<path d="M309.446 285.773C292.113 282.772 274.534 281.433 256.946 281.773C191.446 282.573 170.346 295.263 167.746 299.063L162.746 291.063C179.546 279.063 215.146 272.273 257.346 272.873C279.246 273.273 298.146 274.773 313.946 277.873L309.446 285.873M257.046 178.503C277.565 178.158 298.076 179.597 318.346 182.803C334.346 185.803 349.646 190.203 351.846 192.603L353.546 195.603C348.246 192.203 334.946 188.303 317.946 185.103C300.946 181.903 279.246 180.803 256.946 180.903C231.646 180.803 211.946 182.103 195.146 185.103C183.565 186.723 172.32 190.201 161.846 195.403L163.546 192.303C169.546 189.303 178.846 185.603 194.646 182.703C212.146 179.503 232.046 178.603 257.046 178.503ZM257.046 169.503C278.446 169.303 299.646 170.503 316.146 173.503C326.836 175.091 337.181 178.472 346.746 183.503L349.246 187.503C345.046 182.803 329.246 178.303 315.146 175.903C298.746 173.003 278.446 171.903 257.046 171.703C237.126 171.532 217.225 173.004 197.546 176.103C187.258 177.541 177.266 180.613 167.946 185.203L170.146 181.903C175.946 178.903 185.346 176.103 197.146 173.803C216.955 170.664 236.992 169.192 257.046 169.403V169.503Z" stroke="black" stroke-width="0.6" stroke-linecap="round" stroke-linejoin="round"/>
<path fill-rule="evenodd" clip-rule="evenodd" d="M256.646 280.673C274.846 280.973 292.646 281.673 309.946 284.873L308.746 287.073C292.746 284.073 275.546 283.073 256.746 283.073C232.446 282.873 208.046 285.173 186.746 291.263C180.046 293.163 168.946 297.463 167.746 301.063L166.546 299.063C166.946 296.863 173.546 292.463 186.146 289.063C210.546 282.063 233.346 280.773 256.646 280.673ZM257.446 271.473C276.656 271.451 295.83 273.125 314.746 276.473L313.446 278.773C294.975 275.383 276.225 273.742 257.446 273.873C233.246 273.873 207.546 275.673 184.146 282.473C176.646 284.673 163.546 289.473 163.146 293.163L161.946 290.963C162.146 287.563 173.446 283.073 183.646 280.173C207.146 273.273 232.946 271.573 257.446 271.473Z" fill="#FFFF00" stroke="black" stroke-width="0.6" stroke-linecap="round" stroke-linejoin="round"/>
<path fill-rule="evenodd" clip-rule="evenodd" d="M350.446 292.263L342.646 304.563L319.946 284.473L261.346 244.983L195.146 208.693L160.846 196.993L168.146 183.403L170.646 182.103L191.946 187.403L262.346 223.693L302.946 249.283L337.046 273.773L350.946 289.773L350.446 292.263Z" fill="#FFFF00" stroke="black" stroke-width="0.6" stroke-linecap="round" stroke-linejoin="round"/>
<path fill-rule="evenodd" clip-rule="evenodd" d="M159.646 197.293C165.646 193.293 209.846 212.893 256.246 240.883C302.346 268.883 346.546 300.463 342.546 306.363L341.246 308.463L340.646 308.963C340.746 308.863 341.446 307.963 340.646 305.863C338.646 299.363 307.246 274.373 255.346 242.983C204.646 212.893 162.446 194.703 158.346 199.893L159.646 197.293ZM352.046 292.163C355.846 284.573 314.846 253.683 263.946 223.593C211.946 194.103 174.346 176.703 167.446 181.903L166.046 184.803C166.135 184.605 166.272 184.433 166.446 184.303C167.646 183.303 169.746 183.303 170.646 183.303C182.446 183.503 216.146 198.993 263.446 226.093C284.246 238.093 351.046 281.093 350.746 293.093C350.746 294.093 350.846 294.293 350.446 294.893L352.146 292.293L352.046 292.163Z" fill="#FFFF00" stroke="black" stroke-width="0.6" stroke-linecap="round" stroke-linejoin="round"/>
<path d="M193.686 253.543C193.866 270.261 200.587 286.244 212.411 298.065C224.234 309.887 240.218 316.606 256.936 316.783C273.7 316.78 289.779 310.136 301.654 298.304C313.529 286.472 320.233 270.416 320.296 253.653V169.203L193.686 168.983V253.543Z" fill="white" stroke="black" stroke-width="0.75" stroke-miterlimit="4.27"/>
<path d="M196.046 253.653C196.066 261.593 197.66 269.451 200.735 276.772C203.811 284.093 208.308 290.731 213.966 296.303C219.575 301.962 226.246 306.457 233.597 309.532C240.947 312.607 248.833 314.2 256.8 314.221C264.768 314.241 272.661 312.688 280.027 309.651C287.394 306.614 294.088 302.153 299.726 296.523C305.359 290.937 309.832 284.292 312.887 276.971C315.942 269.649 317.518 261.796 317.526 253.863V171.763H196.246V253.653H196.046ZM293.316 196.393V248.533L293.206 253.973C293.242 258.737 292.315 263.459 290.482 267.856C288.648 272.254 285.946 276.235 282.536 279.563C277.437 284.567 270.976 287.956 263.961 289.306C256.945 290.657 249.688 289.908 243.096 287.154C236.504 284.4 230.87 279.764 226.9 273.824C222.93 267.885 220.8 260.907 220.776 253.763V196.183L293.316 196.393Z" fill="#FF0000" stroke="black" stroke-width="0.53" stroke-miterlimit="4.27"/>
<path d="M203.926 193.193C204.036 187.333 208.196 185.943 208.196 185.943C208.196 185.943 212.776 187.433 212.776 193.303H203.926" fill="#FFFF00"/>
<path d="M200.296 186.053L199.556 192.763H204.046C204.046 187.223 208.306 186.373 208.306 186.373C208.306 186.373 212.576 187.543 212.686 192.763H217.166L216.306 185.943H200.306L200.296 186.053ZM199.236 192.863H217.366C217.549 192.881 217.718 192.969 217.837 193.109C217.957 193.249 218.017 193.429 218.006 193.613C218.006 194.143 217.686 194.463 217.366 194.463H199.236C198.916 194.463 198.596 194.143 198.596 193.613C198.593 193.514 198.61 193.417 198.647 193.325C198.683 193.233 198.737 193.15 198.806 193.08C198.875 193.01 198.958 192.955 199.049 192.917C199.14 192.88 199.238 192.861 199.336 192.863H199.236Z" fill="#FFFF00" stroke="black" stroke-width="0.53" stroke-miterlimit="4.27"/>
<path d="M205.846 192.763C205.846 189.243 208.296 188.293 208.296 188.293C209.093 188.722 209.749 189.372 210.185 190.165C210.622 190.958 210.82 191.86 210.756 192.763H205.846ZM199.656 183.173H217.046C217.366 183.173 217.686 183.593 217.686 184.023C217.674 184.189 217.603 184.345 217.486 184.462C217.368 184.58 217.212 184.651 217.046 184.663H199.656C199.473 184.645 199.304 184.557 199.185 184.417C199.065 184.277 199.005 184.096 199.016 183.913C199.028 183.747 199.099 183.591 199.216 183.473C199.334 183.356 199.49 183.284 199.656 183.273V183.173ZM200.086 184.773H216.516C216.699 184.794 216.867 184.882 216.99 185.019C217.112 185.156 217.18 185.334 217.18 185.518C217.18 185.702 217.112 185.879 216.99 186.017C216.867 186.154 216.699 186.242 216.516 186.263H199.976C199.556 186.263 199.336 185.943 199.336 185.513C199.336 185.083 199.556 184.773 199.976 184.773H200.086ZM205.416 173.463H206.696V174.323H207.696V173.463H209.046V174.463H210.046V173.363H211.326V175.493C211.326 175.923 211.116 176.133 210.796 176.133H206.046C205.891 176.147 205.737 176.099 205.617 176C205.497 175.9 205.421 175.758 205.406 175.603V173.463H205.416ZM210.326 176.343L210.646 183.173H206.046L206.366 176.243H210.316" fill="#FFFF00"/>
<path d="M210.326 176.343L210.646 183.173H206.046L206.366 176.243H210.316M205.846 192.763C205.846 189.243 208.296 188.293 208.296 188.293C209.093 188.722 209.749 189.372 210.185 190.165C210.622 190.958 210.82 191.86 210.756 192.763H205.846ZM199.656 183.173H217.046C217.366 183.173 217.686 183.593 217.686 184.023C217.674 184.189 217.603 184.345 217.486 184.462C217.368 184.58 217.212 184.651 217.046 184.663H199.656C199.473 184.645 199.304 184.557 199.185 184.417C199.065 184.277 199.005 184.096 199.016 183.913C199.028 183.747 199.099 183.591 199.216 183.473C199.334 183.356 199.49 183.284 199.656 183.273V183.173ZM200.086 184.773H216.516C216.699 184.794 216.867 184.882 216.99 185.019C217.112 185.156 217.18 185.334 217.18 185.518C217.18 185.702 217.112 185.879 216.99 186.017C216.867 186.154 216.699 186.242 216.516 186.263H199.976C199.556 186.263 199.336 185.943 199.336 185.513C199.336 185.083 199.556 184.773 199.976 184.773H200.086ZM205.416 173.463H206.696V174.323H207.696V173.463H209.046V174.463H210.046V173.363H211.326V175.493C211.326 175.923 211.116 176.133 210.796 176.133H206.046C205.891 176.147 205.737 176.099 205.617 176C205.497 175.9 205.421 175.758 205.406 175.603V173.463H205.416Z" stroke="black" stroke-width="0.53" stroke-miterlimit="4.27"/>
<path d="M204.776 179.543V183.173H200.516V179.543H204.776Z" fill="#FFFF00" stroke="black" stroke-width="0.53" stroke-miterlimit="4.27"/>
<path d="M216.046 179.543V183.173H211.776V179.543H216.046Z" fill="#FFFF00" stroke="black" stroke-width="0.53" stroke-miterlimit="4.27"/>
<path d="M199.766 176.773H201.046V177.863H202.046V176.793H203.326V177.863H204.326V176.793H205.606V178.863C205.606 179.293 205.396 179.503 205.076 179.503H200.486C200.316 179.503 200.154 179.435 200.034 179.315C199.914 179.195 199.846 179.033 199.846 178.863V176.733L199.766 176.773Z" fill="#FFFF00" stroke="black" stroke-width="0.53" stroke-miterlimit="4.27"/>
<path d="M211.046 176.773H212.326V177.863H213.326V176.793H214.606V177.863H215.606V176.793H216.886V178.863C216.886 179.293 216.666 179.503 216.346 179.503H211.766C211.675 179.514 211.584 179.506 211.496 179.479C211.409 179.452 211.329 179.407 211.261 179.346C211.193 179.286 211.138 179.211 211.101 179.128C211.064 179.044 211.045 178.954 211.046 178.863V178.863V176.733V176.773Z" fill="#FFFF00" stroke="black" stroke-width="0.53" stroke-miterlimit="4.27"/>
<path d="M207.876 178.473C207.876 178.34 207.929 178.213 208.022 178.119C208.116 178.026 208.243 177.973 208.376 177.973C208.509 177.973 208.636 178.026 208.73 178.119C208.823 178.213 208.876 178.34 208.876 178.473V180.183H207.876V178.473Z" fill="black"/>
<path d="M202.216 180.863C202.216 180.749 202.261 180.639 202.342 180.559C202.422 180.478 202.532 180.433 202.646 180.433C202.76 180.433 202.869 180.478 202.95 180.559C203.031 180.639 203.076 180.749 203.076 180.863V182.143H202.216V180.863Z" fill="black"/>
<path d="M213.526 180.863C213.517 180.802 213.521 180.739 213.538 180.679C213.555 180.62 213.584 180.564 213.625 180.517C213.665 180.47 213.715 180.433 213.771 180.407C213.828 180.381 213.889 180.367 213.951 180.367C214.013 180.367 214.074 180.381 214.131 180.407C214.187 180.433 214.237 180.47 214.277 180.517C214.318 180.564 214.347 180.62 214.364 180.679C214.381 180.739 214.385 180.802 214.376 180.863V182.143H213.526V180.863Z" fill="black"/>
<path d="M203.926 242.563C204.036 236.703 208.196 235.313 208.196 235.313C208.196 235.313 212.776 236.803 212.776 242.673H203.926" fill="#FFFF00"/>
<path d="M200.296 235.423L199.556 242.133H204.046C204.046 236.593 208.306 235.743 208.306 235.743C208.306 235.743 212.576 236.913 212.686 242.133H217.166L216.306 235.313H200.306L200.296 235.423ZM199.236 242.243H217.366C217.549 242.261 217.718 242.349 217.837 242.489C217.957 242.628 218.017 242.809 218.006 242.993C218.006 243.523 217.686 243.843 217.366 243.843H199.236C198.916 243.843 198.596 243.523 198.596 242.993C198.593 242.894 198.61 242.796 198.647 242.705C198.683 242.613 198.737 242.53 198.806 242.46C198.875 242.39 198.958 242.335 199.049 242.297C199.14 242.26 199.238 242.241 199.336 242.243H199.236Z" fill="#FFFF00" stroke="black" stroke-width="0.53" stroke-miterlimit="4.27"/>
<path d="M205.846 242.133C205.846 238.623 208.296 237.663 208.296 237.663C209.093 238.092 209.749 238.742 210.185 239.535C210.622 240.328 210.82 241.23 210.756 242.133H205.846ZM199.656 232.543H217.046C217.366 232.543 217.686 232.963 217.686 233.393C217.674 233.559 217.603 233.715 217.486 233.832C217.368 233.95 217.212 234.021 217.046 234.033H199.656C199.473 234.015 199.304 233.927 199.185 233.787C199.065 233.647 199.005 233.466 199.016 233.283C199.028 233.117 199.099 232.961 199.216 232.843C199.334 232.726 199.49 232.654 199.656 232.643V232.543ZM200.086 234.143H216.516C216.699 234.164 216.867 234.252 216.99 234.389C217.112 234.526 217.18 234.704 217.18 234.888C217.18 235.072 217.112 235.249 216.99 235.387C216.867 235.524 216.699 235.612 216.516 235.633H199.976C199.556 235.633 199.336 235.313 199.336 234.883C199.336 234.453 199.556 234.143 199.976 234.143H200.086ZM205.416 222.863H206.696V223.723H207.696V222.863H209.046V223.863H210.046V222.803H211.326V224.863C211.326 225.293 211.116 225.503 210.796 225.503H206.046C205.891 225.517 205.737 225.469 205.617 225.37C205.497 225.27 205.421 225.128 205.406 224.973V222.863H205.416ZM210.326 225.743L210.646 232.573H206.046L206.366 225.643H210.316" fill="#FFFF00"/>
<path d="M210.326 225.743L210.646 232.573H206.046L206.366 225.643H210.316M205.846 242.133C205.846 238.623 208.296 237.663 208.296 237.663C209.093 238.092 209.749 238.742 210.185 239.535C210.622 240.328 210.82 241.23 210.756 242.133H205.846ZM199.656 232.543H217.046C217.366 232.543 217.686 232.963 217.686 233.393C217.674 233.559 217.603 233.715 217.486 233.832C217.368 233.95 217.212 234.021 217.046 234.033H199.656C199.473 234.015 199.304 233.927 199.185 233.787C199.065 233.647 199.005 233.466 199.016 233.283C199.028 233.117 199.099 232.961 199.216 232.843C199.334 232.726 199.49 232.654 199.656 232.643V232.543ZM200.086 234.143H216.516C216.699 234.164 216.867 234.252 216.99 234.389C217.112 234.526 217.18 234.704 217.18 234.888C217.18 235.072 217.112 235.249 216.99 235.387C216.867 235.524 216.699 235.612 216.516 235.633H199.976C199.556 235.633 199.336 235.313 199.336 234.883C199.336 234.453 199.556 234.143 199.976 234.143H200.086ZM205.416 222.863H206.696V223.723H207.696V222.863H209.046V223.863H210.046V222.803H211.326V224.863C211.326 225.293 211.116 225.503 210.796 225.503H206.046C205.891 225.517 205.737 225.469 205.617 225.37C205.497 225.27 205.421 225.128 205.406 224.973V222.863H205.416Z" stroke="black" stroke-width="0.53" stroke-miterlimit="4.27"/>
<path d="M204.776 228.913V232.543H200.516V228.913H204.776Z" fill="#FFFF00" stroke="black" stroke-width="0.53" stroke-miterlimit="4.27"/>
<path d="M216.046 228.913V232.543H211.776V228.913H216.046Z" fill="#FFFF00" stroke="black" stroke-width="0.53" stroke-miterlimit="4.27"/>
<path d="M199.766 226.143H201.046V227.213H202.046V226.143H203.326V227.213H204.326V226.143H205.606V228.273C205.606 228.703 205.396 228.913 205.076 228.913H200.486C200.316 228.913 200.154 228.845 200.034 228.725C199.914 228.605 199.846 228.443 199.846 228.273V226.143H199.766Z" fill="#FFFF00" stroke="black" stroke-width="0.53" stroke-miterlimit="4.27"/>
<path d="M211.046 226.143H212.326V227.213H213.326V226.143H214.606V227.213H215.606V226.143H216.886V228.273C216.886 228.703 216.666 228.913 216.346 228.913H211.766C211.681 228.914 211.598 228.899 211.519 228.867C211.441 228.835 211.37 228.788 211.31 228.728C211.251 228.669 211.204 228.598 211.172 228.519C211.14 228.441 211.125 228.357 211.126 228.273V228.273V226.143H211.046Z" fill="#FFFF00" stroke="black" stroke-width="0.53" stroke-miterlimit="4.27"/>
<path d="M207.876 227.863C207.876 227.73 207.929 227.603 208.022 227.509C208.116 227.415 208.243 227.363 208.376 227.363C208.509 227.363 208.636 227.415 208.73 227.509C208.823 227.603 208.876 227.73 208.876 227.863V229.563H207.876V227.863Z" fill="black"/>
<path d="M202.216 230.193C202.216 230.079 202.261 229.969 202.342 229.889C202.422 229.808 202.532 229.763 202.646 229.763C202.76 229.763 202.869 229.808 202.95 229.889C203.031 229.969 203.076 230.079 203.076 230.193V231.473H202.216V230.193Z" fill="black"/>
<path d="M213.526 230.193C213.517 230.131 213.521 230.069 213.538 230.009C213.555 229.95 213.584 229.894 213.625 229.847C213.665 229.8 213.715 229.762 213.771 229.737C213.828 229.711 213.889 229.697 213.951 229.697C214.013 229.697 214.074 229.711 214.131 229.737C214.187 229.762 214.237 229.8 214.277 229.847C214.318 229.894 214.347 229.95 214.364 230.009C214.381 230.069 214.385 230.131 214.376 230.193V231.473H213.526V230.193Z" fill="black"/>
<path d="M223.176 294.023C219.046 289.863 221.046 285.863 221.046 285.863C221.046 285.863 225.336 283.663 229.496 287.793L223.266 294.073" fill="#FFFF00"/>
<path d="M215.546 291.553L219.796 296.823L222.946 293.643C219.016 289.733 221.416 286.103 221.416 286.103C221.416 286.103 225.256 283.903 229.036 287.513L232.196 284.333L226.746 280.133L215.476 291.483L215.546 291.553ZM219.646 297.123L232.416 284.263C232.558 284.14 232.743 284.078 232.931 284.091C233.118 284.104 233.293 284.191 233.416 284.333C233.563 284.449 233.661 284.617 233.69 284.802C233.72 284.987 233.679 285.176 233.576 285.333L220.796 298.203C220.64 298.305 220.452 298.346 220.268 298.318C220.083 298.291 219.915 298.196 219.796 298.053C219.724 297.985 219.667 297.902 219.628 297.811C219.588 297.72 219.568 297.622 219.568 297.523C219.568 297.424 219.588 297.325 219.628 297.234C219.667 297.143 219.724 297.061 219.796 296.993L219.646 297.123Z" fill="#FFFF00" stroke="black" stroke-width="0.53" stroke-miterlimit="4.27"/>
<path d="M224.226 292.353C221.726 289.873 222.776 287.463 222.776 287.463C223.643 287.203 224.567 287.198 225.438 287.448C226.308 287.698 227.088 288.192 227.686 288.873L224.226 292.353V292.353ZM213.046 289.983L225.296 277.653C225.461 277.547 225.657 277.504 225.851 277.529C226.045 277.555 226.224 277.648 226.356 277.793C226.464 277.92 226.524 278.081 226.524 278.248C226.524 278.415 226.464 278.576 226.356 278.703L214.106 291.033C213.964 291.156 213.779 291.217 213.591 291.204C213.404 291.191 213.229 291.104 213.106 290.963C212.995 290.837 212.935 290.675 212.935 290.508C212.935 290.34 212.995 290.179 213.106 290.053L213.046 289.983ZM214.486 290.803L226.046 279.153C226.187 279.061 226.354 279.02 226.522 279.035C226.689 279.05 226.846 279.121 226.969 279.236C227.091 279.352 227.171 279.505 227.196 279.671C227.22 279.837 227.189 280.007 227.106 280.153L215.456 291.883C215.312 292 215.13 292.061 214.945 292.052C214.76 292.043 214.584 291.966 214.452 291.836C214.321 291.705 214.242 291.53 214.231 291.345C214.221 291.16 214.28 290.977 214.396 290.833L214.486 290.803ZM210.216 279.063L211.116 278.153L211.726 278.753L212.396 278.073L211.796 277.473L212.796 276.473L213.476 277.153L214.146 276.473L213.396 275.723L214.296 274.813L215.806 276.313C216.116 276.613 216.116 276.913 215.886 277.143L212.576 280.473C212.475 280.591 212.332 280.666 212.177 280.68C212.022 280.695 211.868 280.65 211.746 280.553L210.236 279.053L210.216 279.063ZM215.716 277.603L220.786 282.193L217.556 285.443L212.856 280.333L215.646 277.533" fill="#FFFF00"/>
<path d="M215.716 277.603L220.786 282.193L217.556 285.443L212.856 280.333L215.646 277.533M224.226 292.353C221.726 289.873 222.776 287.463 222.776 287.463C223.643 287.203 224.567 287.198 225.438 287.448C226.308 287.698 227.088 288.192 227.686 288.873L224.226 292.353V292.353ZM213.046 289.983L225.296 277.653C225.461 277.547 225.657 277.504 225.851 277.529C226.045 277.555 226.224 277.648 226.356 277.793C226.464 277.92 226.524 278.081 226.524 278.248C226.524 278.415 226.464 278.576 226.356 278.703L214.106 291.033C213.964 291.156 213.779 291.217 213.591 291.204C213.404 291.191 213.229 291.104 213.106 290.963C212.995 290.837 212.935 290.675 212.935 290.508C212.935 290.34 212.995 290.179 213.106 290.053L213.046 289.983ZM214.486 290.803L226.046 279.153C226.187 279.061 226.354 279.02 226.522 279.035C226.689 279.05 226.846 279.121 226.969 279.236C227.091 279.352 227.171 279.505 227.196 279.671C227.22 279.837 227.189 280.007 227.106 280.153L215.456 291.883C215.312 292 215.13 292.061 214.945 292.052C214.76 292.043 214.584 291.966 214.452 291.836C214.321 291.705 214.242 291.53 214.231 291.345C214.221 291.16 214.28 290.977 214.396 290.833L214.486 290.803ZM210.216 279.063L211.116 278.153L211.726 278.753L212.396 278.073L211.796 277.473L212.796 276.473L213.476 277.153L214.146 276.473L213.396 275.723L214.296 274.813L215.806 276.313C216.116 276.613 216.116 276.913 215.886 277.143L212.576 280.473C212.475 280.591 212.332 280.666 212.177 280.68C212.022 280.695 211.868 280.65 211.746 280.553L210.236 279.053L210.216 279.063Z" stroke="black" stroke-width="0.53" stroke-miterlimit="4.27"/>
<path d="M214.046 283.793L216.626 286.353L213.626 289.353L211.046 286.863L214.046 283.793Z" fill="#FFFF00" stroke="black" stroke-width="0.53" stroke-miterlimit="4.27"/>
<path d="M222.046 275.773L224.616 278.333L221.616 281.333L219.046 278.803L222.046 275.773Z" fill="#FFFF00" stroke="black" stroke-width="0.53" stroke-miterlimit="4.27"/>
<path d="M208.586 285.403L209.496 284.493L210.246 285.243L210.926 284.563L210.166 283.813L211.066 282.903L211.826 283.653L212.506 282.973L211.746 282.223L212.646 281.313L214.166 282.813C214.466 283.113 214.466 283.413 214.236 283.643L211.046 286.863C210.987 286.923 210.917 286.97 210.84 287.003C210.763 287.035 210.68 287.052 210.596 287.052C210.512 287.052 210.429 287.035 210.352 287.003C210.275 286.97 210.205 286.923 210.146 286.863V286.863L208.626 285.363L208.586 285.403Z" fill="#FFFF00" stroke="black" stroke-width="0.53" stroke-miterlimit="4.27"/>
<path d="M216.556 277.373L217.456 276.473L218.216 277.223L218.896 276.543L218.136 275.793L219.036 274.883L219.796 275.633L220.466 274.953L219.716 274.203L220.616 273.293L222.126 274.793C222.436 275.093 222.436 275.393 222.206 275.623L218.976 278.863C218.917 278.923 218.846 278.971 218.768 279.003C218.69 279.036 218.606 279.053 218.521 279.053C218.437 279.053 218.353 279.036 218.275 279.003C218.197 278.971 218.126 278.923 218.066 278.863L216.556 277.353V277.373Z" fill="#FFFF00" stroke="black" stroke-width="0.53" stroke-miterlimit="4.27"/>
<path d="M215.516 280.863C215.463 280.821 215.42 280.768 215.389 280.709C215.358 280.649 215.34 280.583 215.336 280.516C215.332 280.449 215.342 280.382 215.366 280.319C215.389 280.255 215.426 280.198 215.473 280.15C215.52 280.102 215.577 280.065 215.64 280.04C215.702 280.016 215.77 280.005 215.837 280.008C215.904 280.011 215.97 280.028 216.03 280.058C216.09 280.088 216.143 280.131 216.186 280.183L217.396 281.383L216.726 282.063L215.516 280.863Z" fill="black"/>
<path d="M213.196 286.513C213.149 286.475 213.111 286.428 213.083 286.375C213.055 286.321 213.039 286.263 213.036 286.203C213.032 286.143 213.041 286.082 213.063 286.026C213.084 285.97 213.116 285.919 213.159 285.876C213.201 285.833 213.251 285.799 213.307 285.777C213.363 285.755 213.423 285.745 213.483 285.748C213.543 285.75 213.602 285.765 213.656 285.792C213.71 285.819 213.758 285.856 213.796 285.903L214.706 286.813L214.106 287.413L213.196 286.513" fill="black"/>
<path d="M221.166 278.493C221.119 278.455 221.08 278.408 221.053 278.355C221.025 278.301 221.009 278.243 221.006 278.183C221.002 278.122 221.011 278.062 221.032 278.006C221.053 277.95 221.086 277.899 221.128 277.856C221.17 277.813 221.221 277.779 221.277 277.757C221.333 277.735 221.393 277.725 221.453 277.728C221.513 277.73 221.572 277.745 221.626 277.772C221.68 277.799 221.727 277.836 221.766 277.883L222.666 278.793L222.066 279.393L221.166 278.493" fill="black"/>
<path d="M252.676 193.193C252.776 187.333 256.936 185.943 256.936 185.943C256.936 185.943 261.526 187.433 261.526 193.303H252.676" fill="#FFFF00"/>
<path d="M249.046 186.053L248.296 192.763H252.776C252.776 187.223 257.046 186.373 257.046 186.373C257.046 186.373 261.316 187.543 261.416 192.763H265.896L265.046 185.943H249.046V186.053ZM247.976 192.863H266.116C266.299 192.881 266.468 192.969 266.588 193.109C266.707 193.249 266.767 193.429 266.756 193.613C266.756 194.143 266.436 194.463 266.116 194.463H247.976C247.656 194.463 247.336 194.143 247.336 193.613C247.334 193.517 247.35 193.422 247.384 193.332C247.418 193.242 247.47 193.16 247.536 193.091C247.602 193.021 247.681 192.965 247.768 192.926C247.856 192.887 247.95 192.865 248.046 192.863H247.976Z" fill="#FFFF00" stroke="black" stroke-width="0.53" stroke-miterlimit="4.27"/>
<path d="M254.596 192.763C254.596 189.243 257.046 188.293 257.046 188.293C257.841 188.723 258.495 189.374 258.93 190.167C259.364 190.96 259.561 191.861 259.496 192.763H254.596V192.763ZM248.406 183.173H265.796C266.116 183.173 266.436 183.593 266.436 184.023C266.424 184.189 266.353 184.345 266.236 184.462C266.118 184.58 265.962 184.651 265.796 184.663H248.406C248.223 184.645 248.054 184.557 247.935 184.417C247.815 184.277 247.755 184.096 247.766 183.913C247.778 183.747 247.849 183.591 247.966 183.473C248.084 183.356 248.24 183.284 248.406 183.273V183.173ZM248.836 184.773H265.256C265.439 184.794 265.607 184.882 265.73 185.019C265.852 185.156 265.92 185.334 265.92 185.518C265.92 185.702 265.852 185.879 265.73 186.017C265.607 186.154 265.439 186.242 265.256 186.263H248.726C248.296 186.263 248.086 185.943 248.086 185.513C248.086 185.083 248.296 184.773 248.726 184.773H248.836ZM254.166 173.463H255.446V174.323H256.446V173.463H257.836V174.463H258.836V173.363H260.046V175.493C260.046 175.923 259.826 176.133 259.506 176.133H254.816C254.661 176.147 254.507 176.099 254.387 176C254.267 175.9 254.191 175.758 254.176 175.603V173.463H254.166ZM259.076 176.343L259.396 183.173H254.806L255.126 176.243H259.046" fill="#FFFF00"/>
<path d="M259.076 176.343L259.396 183.173H254.806L255.126 176.243H259.046M254.596 192.763C254.596 189.243 257.046 188.293 257.046 188.293C257.841 188.723 258.495 189.374 258.93 190.167C259.364 190.96 259.561 191.861 259.496 192.763H254.596V192.763ZM248.406 183.173H265.796C266.116 183.173 266.436 183.593 266.436 184.023C266.424 184.189 266.353 184.345 266.236 184.462C266.118 184.58 265.962 184.651 265.796 184.663H248.406C248.223 184.645 248.054 184.557 247.935 184.417C247.815 184.277 247.755 184.096 247.766 183.913C247.778 183.747 247.849 183.591 247.966 183.473C248.084 183.356 248.24 183.284 248.406 183.273V183.173ZM248.836 184.773H265.256C265.439 184.794 265.607 184.882 265.73 185.019C265.852 185.156 265.92 185.334 265.92 185.518C265.92 185.702 265.852 185.879 265.73 186.017C265.607 186.154 265.439 186.242 265.256 186.263H248.726C248.296 186.263 248.086 185.943 248.086 185.513C248.086 185.083 248.296 184.773 248.726 184.773H248.836ZM254.166 173.463H255.446V174.323H256.446V173.463H257.836V174.463H258.836V173.363H260.046V175.493C260.046 175.923 259.826 176.133 259.506 176.133H254.816C254.661 176.147 254.507 176.099 254.387 176C254.267 175.9 254.191 175.758 254.176 175.603V173.463H254.166Z" stroke="black" stroke-width="0.53" stroke-miterlimit="4.27"/>
<path d="M253.526 179.543V183.173H249.256V179.543H253.526Z" fill="#FFFF00" stroke="black" stroke-width="0.53" stroke-miterlimit="4.27"/>
<path d="M264.836 179.543V183.173H260.566V179.543H264.836Z" fill="#FFFF00" stroke="black" stroke-width="0.53" stroke-miterlimit="4.27"/>
<path d="M248.516 176.773H249.796V177.863H250.796V176.793H252.046V177.863H253.046V176.793H254.326V178.863C254.326 179.293 254.106 179.503 253.786 179.503H249.206C249.036 179.503 248.874 179.435 248.754 179.315C248.634 179.195 248.566 179.033 248.566 178.863V176.733L248.516 176.773Z" fill="#FFFF00" stroke="black" stroke-width="0.53" stroke-miterlimit="4.27"/>
<path d="M259.816 176.773H261.096V177.863H262.096V176.793H263.376V177.863H264.376V176.793H265.656V178.863C265.656 179.293 265.446 179.503 265.126 179.503H260.536C260.367 179.503 260.204 179.435 260.084 179.315C259.964 179.195 259.896 179.033 259.896 178.863V178.863V176.733L259.816 176.773Z" fill="#FFFF00" stroke="black" stroke-width="0.53" stroke-miterlimit="4.27"/>
<path d="M256.616 178.473C256.616 178.34 256.669 178.213 256.763 178.119C256.856 178.026 256.984 177.973 257.116 177.973C257.249 177.973 257.376 178.026 257.47 178.119C257.564 178.213 257.616 178.34 257.616 178.473V180.183H256.616V178.473Z" fill="black"/>
<path d="M250.966 180.863C250.957 180.802 250.961 180.739 250.978 180.679C250.995 180.62 251.025 180.564 251.065 180.517C251.105 180.47 251.156 180.433 251.212 180.407C251.268 180.381 251.329 180.367 251.391 180.367C251.453 180.367 251.515 180.381 251.571 180.407C251.627 180.433 251.677 180.47 251.718 180.517C251.758 180.564 251.788 180.62 251.805 180.679C251.822 180.739 251.826 180.802 251.816 180.863V182.143H250.966V180.863Z" fill="black"/>
<path d="M262.276 180.863C262.267 180.802 262.271 180.739 262.288 180.679C262.305 180.62 262.334 180.564 262.375 180.517C262.415 180.47 262.465 180.433 262.521 180.407C262.578 180.381 262.639 180.367 262.701 180.367C262.763 180.367 262.824 180.381 262.881 180.407C262.937 180.433 262.987 180.47 263.027 180.517C263.068 180.564 263.097 180.62 263.114 180.679C263.131 180.739 263.135 180.802 263.126 180.863V182.143H262.276V180.863Z" fill="black"/>
<path d="M309.956 193.193C309.846 187.333 305.686 185.943 305.686 185.943C305.686 185.943 301.096 187.433 301.096 193.303H309.956" fill="#FFFF00"/>
<path d="M313.576 186.053L314.326 192.763H309.846C309.846 187.223 305.576 186.373 305.576 186.373C305.576 186.373 301.316 187.543 301.206 192.763H296.726L297.576 185.943H313.576V186.053ZM314.646 192.863H296.516C296.333 192.881 296.164 192.969 296.044 193.109C295.925 193.249 295.865 193.429 295.876 193.613C295.876 194.143 296.196 194.463 296.516 194.463H314.646C314.966 194.463 315.286 194.143 315.286 193.613C315.289 193.514 315.271 193.415 315.234 193.323C315.198 193.23 315.143 193.147 315.072 193.076C315.002 193.006 314.918 192.951 314.826 192.914C314.734 192.878 314.635 192.86 314.536 192.863H314.646Z" fill="#FFFF00" stroke="black" stroke-width="0.53" stroke-miterlimit="4.27"/>
<path d="M308.046 192.763C308.046 189.243 305.586 188.293 305.586 188.293C304.791 188.723 304.137 189.374 303.702 190.167C303.268 190.96 303.071 191.861 303.136 192.763H308.046ZM314.226 183.173H296.836C296.516 183.173 296.196 183.593 296.196 184.023C296.207 184.189 296.279 184.345 296.396 184.462C296.514 184.58 296.67 184.651 296.836 184.663H314.216C314.399 184.645 314.568 184.557 314.687 184.417C314.807 184.277 314.867 184.096 314.856 183.913C314.844 183.747 314.773 183.591 314.655 183.473C314.538 183.356 314.382 183.284 314.216 183.273L314.226 183.173ZM313.806 184.773H297.366C297.183 184.794 297.015 184.882 296.892 185.019C296.77 185.156 296.702 185.334 296.702 185.518C296.702 185.702 296.77 185.879 296.892 186.017C297.015 186.154 297.183 186.242 297.366 186.263H313.896C314.326 186.263 314.536 185.943 314.536 185.513C314.536 185.083 314.326 184.773 313.896 184.773H313.806ZM308.466 173.463H307.186V174.323H306.186V173.463H304.806V174.463H303.806V173.363H302.526V175.493C302.526 175.923 302.736 176.133 303.056 176.133H307.746C307.901 176.147 308.055 176.099 308.175 176C308.295 175.9 308.371 175.758 308.386 175.603V173.463H308.466ZM303.566 176.343L303.246 183.173H307.826L307.506 176.243H303.566" fill="#FFFF00"/>
<path d="M303.566 176.343L303.246 183.173H307.826L307.506 176.243H303.566M308.046 192.763C308.046 189.243 305.586 188.293 305.586 188.293C304.791 188.723 304.137 189.374 303.702 190.167C303.268 190.96 303.071 191.861 303.136 192.763H308.046ZM314.226 183.173H296.836C296.516 183.173 296.196 183.593 296.196 184.023C296.207 184.189 296.279 184.345 296.396 184.462C296.514 184.58 296.67 184.651 296.836 184.663H314.216C314.399 184.645 314.568 184.557 314.687 184.417C314.807 184.277 314.867 184.096 314.856 183.913C314.844 183.747 314.773 183.591 314.655 183.473C314.538 183.356 314.382 183.284 314.216 183.273L314.226 183.173ZM313.806 184.773H297.366C297.183 184.794 297.015 184.882 296.892 185.019C296.77 185.156 296.702 185.334 296.702 185.518C296.702 185.702 296.77 185.879 296.892 186.017C297.015 186.154 297.183 186.242 297.366 186.263H313.896C314.326 186.263 314.536 185.943 314.536 185.513C314.536 185.083 314.326 184.773 313.896 184.773H313.806ZM308.466 173.463H307.186V174.323H306.186V173.463H304.806V174.463H303.806V173.363H302.526V175.493C302.526 175.923 302.736 176.133 303.056 176.133H307.746C307.901 176.147 308.055 176.099 308.175 176C308.295 175.9 308.371 175.758 308.386 175.603V173.463H308.466Z" stroke="black" stroke-width="0.53" stroke-miterlimit="4.27"/>
<path d="M309.096 179.543V183.173H313.366V179.543H309.096Z" fill="#FFFF00" stroke="black" stroke-width="0.53" stroke-miterlimit="4.27"/>
<path d="M297.796 179.543V183.173H302.046V179.543H297.796Z" fill="#FFFF00" stroke="black" stroke-width="0.53" stroke-miterlimit="4.27"/>
<path d="M314.116 176.773H312.836V177.863H311.836V176.793H310.556V177.863H309.556V176.793H308.276V178.863C308.276 179.293 308.486 179.503 308.806 179.503H313.396C313.566 179.503 313.728 179.435 313.848 179.315C313.968 179.195 314.036 179.033 314.036 178.863V176.733L314.116 176.773Z" fill="#FFFF00" stroke="black" stroke-width="0.53" stroke-miterlimit="4.27"/>
<path d="M302.806 176.773H301.526V177.863H300.526V176.793H299.246V177.863H298.246V176.793H297.046V178.863C297.046 179.293 297.256 179.503 297.576 179.503H302.166C302.336 179.503 302.498 179.435 302.618 179.315C302.738 179.195 302.806 179.033 302.806 178.863V176.733V176.773Z" fill="#FFFF00" stroke="black" stroke-width="0.53" stroke-miterlimit="4.27"/>
<path d="M306.046 178.473C306.046 178.34 305.993 178.213 305.899 178.119C305.806 178.026 305.679 177.973 305.546 177.973C305.413 177.973 305.286 178.026 305.192 178.119C305.099 178.213 305.046 178.34 305.046 178.473V180.183H306.046V178.473Z" fill="black"/>
<path d="M311.656 180.863C311.665 180.802 311.661 180.739 311.644 180.679C311.627 180.62 311.597 180.564 311.557 180.517C311.517 180.47 311.467 180.433 311.41 180.407C311.354 180.381 311.293 180.367 311.231 180.367C311.169 180.367 311.108 180.381 311.051 180.407C310.995 180.433 310.945 180.47 310.904 180.517C310.864 180.564 310.834 180.62 310.817 180.679C310.8 180.739 310.796 180.802 310.806 180.863V182.143H311.656V180.863Z" fill="black"/>
<path d="M300.356 180.863C300.356 180.749 300.311 180.639 300.23 180.559C300.149 180.478 300.04 180.433 299.926 180.433C299.812 180.433 299.703 180.478 299.622 180.559C299.541 180.639 299.496 180.749 299.496 180.863V182.143H300.356V180.863Z" fill="black"/>
<path d="M309.956 242.563C309.846 236.703 305.686 235.313 305.686 235.313C305.686 235.313 301.096 236.803 301.096 242.673H309.956" fill="#FFFF00"/>
<path d="M313.576 235.423L314.326 242.133H309.846C309.846 236.593 305.576 235.743 305.576 235.743C305.576 235.743 301.316 236.913 301.206 242.133H296.726L297.576 235.313H313.576V235.423ZM314.646 242.243H296.516C296.333 242.261 296.164 242.349 296.044 242.489C295.925 242.628 295.865 242.809 295.876 242.993C295.876 243.523 296.196 243.843 296.516 243.843H314.646C314.966 243.843 315.286 243.523 315.286 242.993C315.289 242.894 315.271 242.795 315.234 242.702C315.198 242.61 315.143 242.526 315.072 242.456C315.002 242.386 314.918 242.331 314.826 242.294C314.734 242.258 314.635 242.24 314.536 242.243H314.646Z" fill="#FFFF00" stroke="black" stroke-width="0.53" stroke-miterlimit="4.27"/>
<path d="M308.046 242.133C308.046 238.623 305.586 237.663 305.586 237.663C304.791 238.093 304.137 238.744 303.702 239.537C303.268 240.33 303.071 241.231 303.136 242.133H308.046ZM314.226 232.543H296.836C296.516 232.543 296.196 232.963 296.196 233.393C296.207 233.559 296.279 233.715 296.396 233.832C296.514 233.95 296.67 234.021 296.836 234.033H314.216C314.399 234.015 314.568 233.927 314.687 233.787C314.807 233.647 314.867 233.466 314.856 233.283C314.844 233.117 314.773 232.961 314.655 232.843C314.538 232.726 314.382 232.654 314.216 232.643L314.226 232.543ZM313.806 234.143H297.366C297.183 234.164 297.015 234.252 296.892 234.389C296.77 234.526 296.702 234.704 296.702 234.888C296.702 235.072 296.77 235.249 296.892 235.387C297.015 235.524 297.183 235.612 297.366 235.633H313.896C314.326 235.633 314.536 235.313 314.536 234.883C314.536 234.453 314.326 234.143 313.896 234.143H313.806ZM308.456 222.863H307.176V223.723H306.176V222.863H304.796V223.863H303.796V222.803H302.516V224.863C302.516 225.293 302.726 225.503 303.046 225.503H307.736C307.891 225.517 308.045 225.469 308.165 225.37C308.285 225.27 308.361 225.128 308.376 224.973V222.863H308.456ZM303.556 225.743L303.236 232.573H307.816L307.496 225.643H303.556" fill="#FFFF00"/>
<path d="M303.556 225.743L303.236 232.573H307.816L307.496 225.643H303.556M308.046 242.133C308.046 238.623 305.586 237.663 305.586 237.663C304.791 238.093 304.137 238.744 303.702 239.537C303.268 240.33 303.071 241.231 303.136 242.133H308.046ZM314.226 232.543H296.836C296.516 232.543 296.196 232.963 296.196 233.393C296.207 233.559 296.279 233.715 296.396 233.832C296.514 233.95 296.67 234.021 296.836 234.033H314.216C314.399 234.015 314.568 233.927 314.687 233.787C314.807 233.647 314.867 233.466 314.856 233.283C314.844 233.117 314.773 232.961 314.655 232.843C314.538 232.726 314.382 232.654 314.216 232.643L314.226 232.543ZM313.806 234.143H297.366C297.183 234.164 297.015 234.252 296.892 234.389C296.77 234.526 296.702 234.704 296.702 234.888C296.702 235.072 296.77 235.249 296.892 235.387C297.015 235.524 297.183 235.612 297.366 235.633H313.896C314.326 235.633 314.536 235.313 314.536 234.883C314.536 234.453 314.326 234.143 313.896 234.143H313.806ZM308.456 222.863H307.176V223.723H306.176V222.863H304.796V223.863H303.796V222.803H302.516V224.863C302.516 225.293 302.726 225.503 303.046 225.503H307.736C307.891 225.517 308.045 225.469 308.165 225.37C308.285 225.27 308.361 225.128 308.376 224.973V222.863H308.456Z" stroke="black" stroke-width="0.53" stroke-miterlimit="4.27"/>
<path d="M309.096 228.913V232.543H313.366V228.913H309.096Z" fill="#FFFF00" stroke="black" stroke-width="0.53" stroke-miterlimit="4.27"/>
<path d="M297.796 228.913V232.543H302.046V228.913H297.796Z" fill="#FFFF00" stroke="black" stroke-width="0.53" stroke-miterlimit="4.27"/>
<path d="M314.116 226.143H312.836V227.213H311.836V226.143H310.556V227.213H309.556V226.143H308.276V228.273C308.276 228.703 308.486 228.913 308.806 228.913H313.396C313.566 228.913 313.728 228.845 313.848 228.725C313.968 228.605 314.036 228.443 314.036 228.273V226.143H314.116Z" fill="#FFFF00" stroke="black" stroke-width="0.53" stroke-miterlimit="4.27"/>
<path d="M302.806 226.143H301.526V227.213H300.526V226.143H299.246V227.213H298.246V226.143H297.046V228.273C297.046 228.703 297.256 228.913 297.576 228.913H302.166C302.336 228.913 302.498 228.845 302.618 228.725C302.738 228.605 302.806 228.443 302.806 228.273V226.143V226.143Z" fill="#FFFF00" stroke="black" stroke-width="0.53" stroke-miterlimit="4.27"/>
<path d="M306.046 227.863C306.046 227.73 305.993 227.603 305.899 227.509C305.806 227.415 305.679 227.363 305.546 227.363C305.413 227.363 305.286 227.415 305.192 227.509C305.099 227.603 305.046 227.73 305.046 227.863V229.563H306.046V227.863Z" fill="black"/>
<path d="M311.656 230.193C311.665 230.131 311.661 230.069 311.644 230.009C311.627 229.95 311.597 229.894 311.557 229.847C311.517 229.8 311.467 229.762 311.41 229.737C311.354 229.711 311.293 229.697 311.231 229.697C311.169 229.697 311.108 229.711 311.051 229.737C310.995 229.762 310.945 229.8 310.904 229.847C310.864 229.894 310.834 229.95 310.817 230.009C310.8 230.069 310.796 230.131 310.806 230.193V231.473H311.656V230.193Z" fill="black"/>
<path d="M300.356 230.193C300.356 230.079 300.311 229.969 300.23 229.889C300.149 229.808 300.04 229.763 299.926 229.763C299.812 229.763 299.703 229.808 299.622 229.889C299.541 229.969 299.496 230.079 299.496 230.193V231.473H300.356V230.193Z" fill="black"/>
<path d="M290.706 294.023C294.796 289.813 292.846 285.883 292.846 285.883C292.846 285.883 288.556 283.683 284.386 287.813L290.626 294.093" fill="#FFFF00"/>
<path d="M298.326 291.553L294.046 296.863L290.896 293.683C294.826 289.773 292.426 286.143 292.426 286.143C292.426 286.143 288.586 283.943 284.806 287.553L281.646 284.373L287.096 280.173L298.366 291.523L298.326 291.553ZM294.236 297.123L281.456 284.263C281.314 284.14 281.129 284.078 280.941 284.091C280.754 284.104 280.579 284.191 280.456 284.333C280.311 284.451 280.215 284.619 280.187 284.804C280.159 284.989 280.202 285.177 280.306 285.333L293.086 298.203C293.246 298.32 293.445 298.369 293.641 298.341C293.837 298.313 294.015 298.21 294.136 298.053C294.208 297.985 294.265 297.902 294.304 297.811C294.344 297.72 294.364 297.622 294.364 297.523C294.364 297.424 294.344 297.325 294.304 297.234C294.265 297.143 294.208 297.061 294.136 296.993L294.236 297.123Z" fill="#FFFF00" stroke="black" stroke-width="0.53" stroke-miterlimit="4.27"/>
<path d="M289.656 292.353C292.156 289.873 291.106 287.463 291.106 287.463C290.238 287.203 289.314 287.198 288.444 287.448C287.574 287.698 286.793 288.192 286.196 288.873L289.656 292.353V292.353ZM300.826 289.983L288.576 277.653C288.411 277.547 288.214 277.504 288.02 277.529C287.826 277.555 287.648 277.648 287.516 277.793C287.405 277.919 287.345 278.08 287.345 278.248C287.345 278.415 287.405 278.577 287.516 278.703L299.766 291.033C299.908 291.156 300.093 291.217 300.28 291.204C300.468 291.191 300.642 291.104 300.766 290.963C300.876 290.837 300.937 290.675 300.937 290.508C300.937 290.34 300.876 290.179 300.766 290.053L300.826 289.983ZM299.386 290.803L287.816 279.153C287.674 279.03 287.489 278.968 287.301 278.981C287.114 278.994 286.939 279.081 286.816 279.223C286.744 279.282 286.685 279.356 286.641 279.439C286.598 279.522 286.572 279.613 286.565 279.706C286.557 279.799 286.569 279.893 286.598 279.982C286.627 280.07 286.674 280.152 286.736 280.223L298.386 291.953C298.529 292.07 298.711 292.131 298.897 292.122C299.082 292.113 299.257 292.036 299.389 291.906C299.521 291.775 299.6 291.6 299.61 291.415C299.621 291.23 299.562 291.047 299.446 290.903L299.386 290.803ZM303.656 279.063L302.756 278.153L302.146 278.753L301.466 278.073L302.076 277.473L301.076 276.473L300.396 277.153L299.716 276.473L300.476 275.723L299.576 274.813L298.066 276.313C297.756 276.613 297.756 276.913 297.986 277.143L301.286 280.473C301.387 280.591 301.53 280.666 301.685 280.68C301.839 280.695 301.994 280.65 302.116 280.553L303.636 279.053L303.656 279.063ZM298.156 277.603L293.046 282.193L296.276 285.443L300.966 280.333L298.186 277.533" fill="#FFFF00"/>
<path d="M298.156 277.603L293.046 282.193L296.276 285.443L300.966 280.333L298.186 277.533M289.656 292.353C292.156 289.873 291.106 287.463 291.106 287.463C290.238 287.203 289.314 287.198 288.444 287.448C287.574 287.698 286.793 288.192 286.196 288.873L289.656 292.353V292.353ZM300.826 289.983L288.576 277.653C288.411 277.547 288.214 277.504 288.02 277.529C287.826 277.555 287.648 277.648 287.516 277.793C287.405 277.919 287.345 278.08 287.345 278.248C287.345 278.415 287.405 278.577 287.516 278.703L299.766 291.033C299.908 291.156 300.093 291.217 300.28 291.204C300.468 291.191 300.642 291.104 300.766 290.963C300.876 290.837 300.937 290.675 300.937 290.508C300.937 290.34 300.876 290.179 300.766 290.053L300.826 289.983ZM299.386 290.803L287.816 279.153C287.674 279.03 287.489 278.968 287.301 278.981C287.114 278.994 286.939 279.081 286.816 279.223C286.744 279.282 286.685 279.356 286.641 279.439C286.598 279.522 286.572 279.613 286.565 279.706C286.557 279.799 286.569 279.893 286.598 279.982C286.627 280.07 286.674 280.152 286.736 280.223L298.386 291.953C298.529 292.07 298.711 292.131 298.897 292.122C299.082 292.113 299.257 292.036 299.389 291.906C299.521 291.775 299.6 291.6 299.61 291.415C299.621 291.23 299.562 291.047 299.446 290.903L299.386 290.803ZM303.656 279.063L302.756 278.153L302.146 278.753L301.466 278.073L302.076 277.473L301.076 276.473L300.396 277.153L299.716 276.473L300.476 275.723L299.576 274.813L298.066 276.313C297.756 276.613 297.756 276.913 297.986 277.143L301.286 280.473C301.387 280.591 301.53 280.666 301.685 280.68C301.839 280.695 301.994 280.65 302.116 280.553L303.636 279.053L303.656 279.063Z" stroke="black" stroke-width="0.53" stroke-miterlimit="4.27"/>
<path d="M299.786 283.793L297.216 286.353L300.216 289.353L302.786 286.803L299.786 283.793Z" fill="#FFFF00" stroke="black" stroke-width="0.53" stroke-miterlimit="4.27"/>
<path d="M291.826 275.773L289.246 278.333L292.246 281.333L294.816 278.783L291.826 275.773Z" fill="#FFFF00" stroke="black" stroke-width="0.53" stroke-miterlimit="4.27"/>
<path d="M305.286 285.403L304.386 284.493L303.636 285.243L302.956 284.563L303.716 283.813L302.806 282.903L302.056 283.653L301.376 282.973L302.136 282.223L301.236 281.313L299.716 282.813C299.416 283.113 299.416 283.413 299.636 283.643L302.876 286.893C302.934 286.953 303.004 287 303.082 287.033C303.159 287.065 303.242 287.082 303.326 287.082C303.409 287.082 303.492 287.065 303.57 287.033C303.647 287 303.717 286.953 303.776 286.893V286.893L305.286 285.393V285.403Z" fill="#FFFF00" stroke="black" stroke-width="0.53" stroke-miterlimit="4.27"/>
<path d="M297.326 277.373L296.426 276.473L295.666 277.223L294.986 276.543L295.746 275.793L294.846 274.883L294.086 275.633L293.406 274.953L294.166 274.203L293.266 273.293L291.756 274.793C291.446 275.093 291.446 275.393 291.676 275.623L294.906 278.873C294.964 278.933 295.035 278.98 295.112 279.013C295.189 279.045 295.272 279.062 295.356 279.062C295.44 279.062 295.523 279.045 295.6 279.013C295.677 278.98 295.747 278.933 295.806 278.873V278.873L297.326 277.363V277.373Z" fill="#FFFF00" stroke="black" stroke-width="0.53" stroke-miterlimit="4.27"/>
<path d="M298.366 280.863C298.419 280.821 298.462 280.768 298.493 280.709C298.524 280.649 298.542 280.583 298.546 280.516C298.55 280.449 298.54 280.382 298.517 280.319C298.493 280.255 298.456 280.198 298.409 280.15C298.362 280.102 298.305 280.065 298.242 280.04C298.18 280.016 298.113 280.005 298.045 280.008C297.978 280.011 297.912 280.028 297.852 280.058C297.792 280.088 297.739 280.131 297.696 280.183L296.476 281.383L297.156 282.063L298.366 280.863" fill="black"/>
<path d="M300.686 286.513C300.733 286.475 300.771 286.428 300.799 286.375C300.826 286.321 300.842 286.263 300.846 286.203C300.849 286.143 300.84 286.082 300.819 286.026C300.798 285.97 300.765 285.919 300.723 285.876C300.681 285.833 300.63 285.799 300.574 285.777C300.519 285.755 300.459 285.745 300.399 285.748C300.338 285.75 300.28 285.765 300.226 285.792C300.172 285.819 300.124 285.856 300.086 285.903L299.176 286.813L299.776 287.413L300.686 286.513" fill="black"/>
<path d="M292.716 278.493C292.763 278.455 292.801 278.408 292.829 278.355C292.857 278.301 292.873 278.243 292.876 278.183C292.88 278.122 292.871 278.062 292.849 278.006C292.828 277.95 292.796 277.899 292.753 277.856C292.711 277.813 292.661 277.779 292.605 277.757C292.549 277.735 292.489 277.725 292.429 277.728C292.369 277.73 292.31 277.745 292.256 277.772C292.202 277.799 292.154 277.836 292.116 277.883L291.206 278.793L291.806 279.393L292.716 278.493" fill="black"/>
<path d="M249.156 244.373C249.137 246.623 249.973 248.796 251.496 250.453C252.21 251.249 253.082 251.888 254.056 252.329C255.031 252.77 256.087 253.003 257.156 253.013C258.223 252.993 259.274 252.756 260.245 252.316C261.217 251.876 262.088 251.242 262.806 250.453C264.336 248.8 265.177 246.625 265.156 244.373V232.863H249.156V244.373Z" fill="#003399"/>
<path d="M252.886 238.833C253.77 238.833 254.486 238.116 254.486 237.233C254.486 236.349 253.77 235.633 252.886 235.633C252.002 235.633 251.286 236.349 251.286 237.233C251.286 238.116 252.002 238.833 252.886 238.833Z" fill="white"/>
<path d="M261.736 238.833C262.62 238.833 263.336 238.116 263.336 237.233C263.336 236.349 262.62 235.633 261.736 235.633C260.853 235.633 260.136 236.349 260.136 237.233C260.136 238.116 260.853 238.833 261.736 238.833Z" fill="white"/>
<path d="M257.256 243.093C258.14 243.093 258.856 242.376 258.856 241.493C258.856 240.609 258.14 239.893 257.256 239.893C256.373 239.893 255.656 240.609 255.656 241.493C255.656 242.376 256.373 243.093 257.256 243.093Z" fill="white"/>
<path d="M252.886 247.573C253.77 247.573 254.486 246.856 254.486 245.973C254.486 245.089 253.77 244.373 252.886 244.373C252.002 244.373 251.286 245.089 251.286 245.973C251.286 246.856 252.002 247.573 252.886 247.573Z" fill="white"/>
<path d="M261.736 247.573C262.62 247.573 263.336 246.856 263.336 245.973C263.336 245.089 262.62 244.373 261.736 244.373C260.853 244.373 260.136 245.089 260.136 245.973C260.136 246.856 260.853 247.573 261.736 247.573Z" fill="white"/>
<path d="M249.156 216.653C249.139 218.903 249.975 221.075 251.496 222.733C252.21 223.529 253.082 224.168 254.056 224.609C255.031 225.05 256.087 225.283 257.156 225.293C258.222 225.273 259.274 225.036 260.245 224.596C261.217 224.156 262.088 223.522 262.806 222.733C264.334 221.079 265.175 218.905 265.156 216.653V205.133H249.156V216.653" fill="#003399"/>
<path d="M252.886 211.103C253.77 211.103 254.486 210.386 254.486 209.503C254.486 208.619 253.77 207.903 252.886 207.903C252.002 207.903 251.286 208.619 251.286 209.503C251.286 210.386 252.002 211.103 252.886 211.103Z" fill="white"/>
<path d="M261.736 211.103C262.62 211.103 263.336 210.386 263.336 209.503C263.336 208.619 262.62 207.903 261.736 207.903C260.853 207.903 260.136 208.619 260.136 209.503C260.136 210.386 260.853 211.103 261.736 211.103Z" fill="white"/>
<path d="M257.256 215.373C258.14 215.373 258.856 214.657 258.856 213.773C258.856 212.889 258.14 212.173 257.256 212.173C256.373 212.173 255.656 212.889 255.656 213.773C255.656 214.657 256.373 215.373 257.256 215.373Z" fill="white"/>
<path d="M252.886 219.853C253.77 219.853 254.486 219.136 254.486 218.253C254.486 217.369 253.77 216.653 252.886 216.653C252.002 216.653 251.286 217.369 251.286 218.253C251.286 219.136 252.002 219.853 252.886 219.853Z" fill="white"/>
<path d="M261.736 219.853C262.62 219.853 263.336 219.136 263.336 218.253C263.336 217.369 262.62 216.653 261.736 216.653C260.853 216.653 260.136 217.369 260.136 218.253C260.136 219.136 260.853 219.853 261.736 219.853Z" fill="white"/>
<path d="M226.966 244.373C226.945 246.625 227.786 248.8 229.316 250.453C230.028 251.249 230.898 251.888 231.871 252.329C232.844 252.769 233.898 253.002 234.966 253.013C236.033 252.995 237.085 252.758 238.056 252.318C239.028 251.877 239.899 251.243 240.616 250.453C242.146 248.8 242.987 246.625 242.966 244.373V232.863H226.966V244.373Z" fill="#003399"/>
<path d="M230.696 238.833C231.58 238.833 232.296 238.116 232.296 237.233C232.296 236.349 231.58 235.633 230.696 235.633C229.813 235.633 229.096 236.349 229.096 237.233C229.096 238.116 229.813 238.833 230.696 238.833Z" fill="white"/>
<path d="M239.556 238.833C240.44 238.833 241.156 238.116 241.156 237.233C241.156 236.349 240.44 235.633 239.556 235.633C238.672 235.633 237.956 236.349 237.956 237.233C237.956 238.116 238.672 238.833 239.556 238.833Z" fill="white"/>
<path d="M235.076 243.093C235.96 243.093 236.676 242.376 236.676 241.493C236.676 240.609 235.96 239.893 235.076 239.893C234.192 239.893 233.476 240.609 233.476 241.493C233.476 242.376 234.192 243.093 235.076 243.093Z" fill="white"/>
<path d="M230.696 247.573C231.58 247.573 232.296 246.856 232.296 245.973C232.296 245.089 231.58 244.373 230.696 244.373C229.813 244.373 229.096 245.089 229.096 245.973C229.096 246.856 229.813 247.573 230.696 247.573Z" fill="white"/>
<path d="M239.556 247.573C240.44 247.573 241.156 246.856 241.156 245.973C241.156 245.089 240.44 244.373 239.556 244.373C238.672 244.373 237.956 245.089 237.956 245.973C237.956 246.856 238.672 247.573 239.556 247.573Z" fill="white"/>
<path d="M271.336 244.373C271.316 246.625 272.156 248.8 273.686 250.453C274.398 251.249 275.268 251.888 276.241 252.329C277.214 252.769 278.268 253.002 279.336 253.013C280.404 252.994 281.457 252.757 282.43 252.316C283.404 251.876 284.277 251.242 284.996 250.453C286.519 248.796 287.356 246.623 287.336 244.373V232.863H271.336V244.373Z" fill="#003399"/>
<path d="M275.076 238.833C275.96 238.833 276.676 238.116 276.676 237.233C276.676 236.349 275.96 235.633 275.076 235.633C274.192 235.633 273.476 236.349 273.476 237.233C273.476 238.116 274.192 238.833 275.076 238.833Z" fill="white"/>
<path d="M283.926 238.833C284.81 238.833 285.526 238.116 285.526 237.233C285.526 236.349 284.81 235.633 283.926 235.633C283.043 235.633 282.326 236.349 282.326 237.233C282.326 238.116 283.043 238.833 283.926 238.833Z" fill="white"/>
<path d="M279.446 243.093C280.33 243.093 281.046 242.376 281.046 241.493C281.046 240.609 280.33 239.893 279.446 239.893C278.563 239.893 277.846 240.609 277.846 241.493C277.846 242.376 278.563 243.093 279.446 243.093Z" fill="white"/>
<path d="M275.076 247.573C275.96 247.573 276.676 246.856 276.676 245.973C276.676 245.089 275.96 244.373 275.076 244.373C274.192 244.373 273.476 245.089 273.476 245.973C273.476 246.856 274.192 247.573 275.076 247.573Z" fill="white"/>
<path d="M283.926 247.573C284.81 247.573 285.526 246.856 285.526 245.973C285.526 245.089 284.81 244.373 283.926 244.373C283.043 244.373 282.326 245.089 282.326 245.973C282.326 246.856 283.043 247.573 283.926 247.573Z" fill="white"/>
<path d="M249.156 271.863C249.137 274.113 249.973 276.286 251.496 277.943C252.21 278.739 253.082 279.378 254.056 279.819C255.031 280.259 256.087 280.492 257.156 280.503C258.223 280.483 259.274 280.246 260.245 279.806C261.217 279.366 262.088 278.732 262.806 277.943C264.336 276.29 265.177 274.115 265.156 271.863V260.373H249.156V271.863Z" fill="#003399"/>
<path d="M252.886 266.343C253.77 266.343 254.486 265.626 254.486 264.743C254.486 263.859 253.77 263.143 252.886 263.143C252.002 263.143 251.286 263.859 251.286 264.743C251.286 265.626 252.002 266.343 252.886 266.343Z" fill="white"/>
<path d="M261.736 266.343C262.62 266.343 263.336 265.626 263.336 264.743C263.336 263.859 262.62 263.143 261.736 263.143C260.853 263.143 260.136 263.859 260.136 264.743C260.136 265.626 260.853 266.343 261.736 266.343Z" fill="white"/>
<path d="M257.256 270.613C258.14 270.613 258.856 269.896 258.856 269.013C258.856 268.129 258.14 267.413 257.256 267.413C256.373 267.413 255.656 268.129 255.656 269.013C255.656 269.896 256.373 270.613 257.256 270.613Z" fill="white"/>
<path d="M252.886 275.083C253.77 275.083 254.486 274.366 254.486 273.483C254.486 272.599 253.77 271.883 252.886 271.883C252.002 271.883 251.286 272.599 251.286 273.483C251.286 274.366 252.002 275.083 252.886 275.083Z" fill="white"/>
<path d="M261.736 275.083C262.62 275.083 263.336 274.366 263.336 273.483C263.336 272.599 262.62 271.883 261.736 271.883C260.853 271.883 260.136 272.599 260.136 273.483C260.136 274.366 260.853 275.083 261.736 275.083Z" fill="white"/>
<path d="M641.046 1.86279H1.0459V481.703H641.046V1.86279Z" stroke="#333333" stroke-width="2" stroke-miterlimit="10"/>
</svg>
