<svg width="641" height="481" viewBox="0 0 641 481" fill="none" xmlns="http://www.w3.org/2000/svg">
<path fill-rule="evenodd" clip-rule="evenodd" d="M0.115723 0.862793H640.116V480.863H0.115723V0.862793Z" fill="white"/>
<path fill-rule="evenodd" clip-rule="evenodd" d="M0.115723 320.832H640.116V480.863H0.115723V320.832Z" fill="#D50000"/>
<path fill-rule="evenodd" clip-rule="evenodd" d="M0.115723 160.894H640.116V320.832H0.115723V160.894Z" fill="#0000BF"/>
<path fill-rule="evenodd" clip-rule="evenodd" d="M228.341 88.0503C224.591 145.8 222.341 177.488 213.622 192.113C204.059 207.863 194.872 219.394 157.653 233.363C120.528 219.394 111.341 207.863 101.778 192.113C92.9656 177.488 90.8093 145.8 87.0593 88.0503L92.4968 86.1753C103.559 82.8003 111.809 80.0815 117.903 78.8628C126.622 76.9878 134.122 74.9253 157.559 74.4565C180.997 74.8315 188.497 77.0815 197.216 78.9565C203.216 80.269 211.841 82.7065 222.809 86.1753L228.341 88.0503Z" fill="#D50000"/>
<path fill-rule="evenodd" clip-rule="evenodd" d="M222.903 86.1753C219.341 143.832 216.341 170.269 211.653 182.925C202.653 204.675 188.403 216.582 157.653 227.925C126.903 216.582 112.653 204.675 103.559 182.925C98.8718 170.175 96.0593 143.832 92.4968 86.0815C103.372 82.7065 111.809 80.0815 117.903 78.8628C126.622 76.9878 134.122 74.8315 157.559 74.4565C180.997 74.8315 188.497 76.9878 197.216 78.8628C205.893 80.8382 214.467 83.2475 222.903 86.0815V86.1753Z" fill="#0000BF"/>
<path fill-rule="evenodd" clip-rule="evenodd" d="M157.653 103.8L159.059 107.269L165.622 108.207L161.403 110.738L165.434 113.457L159.528 114.394L157.653 117.582L155.778 114.3L150.153 113.55L153.903 110.738L149.966 108.207L156.247 107.269L157.653 103.8V103.8Z" fill="#FFDF00"/>
<path fill-rule="evenodd" clip-rule="evenodd" d="M209.497 169.238L205.841 166.425L203.309 162.113L198.247 157.707L195.528 153.3L190.466 148.707L188.028 144.3L185.216 142.144L183.528 140.363L178.841 144.394L176.403 148.8L173.309 151.613L169.841 148.894L167.309 144.394L157.653 127.238L147.997 144.394L145.466 148.894L141.997 151.613L138.903 148.8L136.372 144.394L131.778 140.363L129.997 142.05L127.278 144.3L124.841 148.707L119.778 153.3L117.059 157.707L111.997 162.113L109.466 166.425L105.809 169.238C107.87 182.142 113.976 194.059 123.247 203.269C133.304 211.877 144.966 218.408 157.559 222.488C170.249 218.5 181.989 211.959 192.059 203.269C197.497 197.644 207.622 185.175 209.497 169.238V169.238Z" fill="white"/>
<path fill-rule="evenodd" clip-rule="evenodd" d="M173.028 79.519L174.528 82.9878L181.091 83.9253L176.778 86.4565L180.903 89.1753L174.997 90.1128L173.122 93.3003L171.247 90.019L165.622 89.269L169.372 86.4565L165.434 83.9253L171.622 82.9878L173.122 79.519H173.028ZM142.091 79.519L143.591 82.9878L150.153 83.8315L145.934 86.3628L149.966 89.0815L144.059 90.019L142.184 93.2065L140.309 90.019L134.684 89.1753L138.434 86.3628L134.497 83.8315L140.778 82.894L142.184 79.4253L142.091 79.519Z" fill="#FFDF00"/>
<path fill-rule="evenodd" clip-rule="evenodd" d="M201.434 191.175H194.497L187.934 190.707L180.153 186.957H171.341L163.747 190.707L157.653 191.269L151.653 190.707L144.059 186.957H135.153L127.278 190.707L120.809 191.269L113.684 191.175L110.309 185.363L110.403 185.175L120.903 186.957L127.372 186.488L135.153 182.644H143.966L151.653 186.394L157.653 186.957L163.747 186.394L171.341 182.644H180.153L188.028 186.394L194.497 186.957L204.622 185.082L204.809 185.457L201.341 191.175H201.434ZM120.434 200.082L127.372 199.613L135.153 195.863H143.966L151.653 199.613L157.653 200.082L163.653 199.613L171.341 195.863H180.153L187.934 199.613L194.966 200.082L199.466 194.457H199.372L194.497 195.769L188.028 195.3L180.247 191.55H171.434L163.747 195.3L157.747 195.863L151.653 195.3L144.059 191.55H135.153L127.278 195.3L120.809 195.863L116.122 194.644V194.832L120.341 200.082H120.434Z" fill="#0000BF"/>
<rect x="1.11572" y="1.86279" width="638" height="478" stroke="#333333" stroke-width="2"/>
</svg>
