<svg width="641" height="481" viewBox="0 0 641 481" fill="none" xmlns="http://www.w3.org/2000/svg">
<path fill-rule="evenodd" clip-rule="evenodd" d="M0.0268555 0.0161133H640.027V480.016H0.0268555V0.0161133Z" fill="#E30A17"/>
<path fill-rule="evenodd" clip-rule="evenodd" d="M406.593 247.369C406.593 313.529 352.026 367.197 284.666 367.197C217.306 367.197 162.739 313.529 162.739 247.269C162.739 181.008 217.306 127.54 284.666 127.54C352.026 127.54 406.593 181.208 406.593 247.369Z" fill="white"/>
<path fill-rule="evenodd" clip-rule="evenodd" d="M412.59 247.369C412.59 300.337 369.016 343.211 315.148 343.211C261.28 343.211 217.606 300.237 217.606 247.269C217.606 194.3 261.28 151.526 315.148 151.526C369.016 151.526 412.69 194.4 412.69 247.369H412.59Z" fill="#E30A17"/>
<path fill-rule="evenodd" clip-rule="evenodd" d="M430.279 191.402L429.28 235.675L388.004 246.869L428.78 261.36L427.78 302.036L454.265 270.255L494.441 284.246L471.254 250.167L499.538 216.287L456.064 228.28L430.279 191.302V191.402Z" fill="white"/>
<rect x="1.02686" y="1.01611" width="638" height="478" stroke="#333333" stroke-width="2"/>
</svg>
