<svg width="129" height="128" viewBox="0 0 129 128" fill="none" xmlns="http://www.w3.org/2000/svg">
    <rect x="0.5" width="128" height="128" rx="64" fill="#DC9999"/>
    <path d="M77.4066 63.0134C78.4748 63.0266 79.5347 62.8258 80.524 62.4228C81.5133 62.0197 82.4118 61.4226 83.1666 60.6667L90.7133 53.1201C91.21 52.6204 91.4887 51.9446 91.4887 51.2401C91.4887 50.5356 91.21 49.8597 90.7133 49.3601C90.4654 49.1101 90.1705 48.9117 89.8455 48.7764C89.5205 48.641 89.172 48.5713 88.82 48.5713C88.4679 48.5713 88.1194 48.641 87.7944 48.7764C87.4695 48.9117 87.1745 49.1101 86.9266 49.3601L79.3 56.8801C79.0521 57.13 78.7571 57.3284 78.4322 57.4638C78.1072 57.5992 77.7587 57.6689 77.4066 57.6689C77.0546 57.6689 76.7061 57.5992 76.3811 57.4638C76.0561 57.3284 75.7612 57.13 75.5133 56.8801L84.9533 47.4667C85.2019 47.2181 85.3992 46.9229 85.5337 46.5981C85.6683 46.2732 85.7375 45.925 85.7375 45.5734C85.7375 45.2218 85.6683 44.8736 85.5337 44.5487C85.3992 44.2239 85.2019 43.9287 84.9533 43.6801C84.7047 43.4314 84.4095 43.2342 84.0846 43.0996C83.7598 42.9651 83.4116 42.8958 83.06 42.8958C82.7083 42.8958 82.3602 42.9651 82.0353 43.0996C81.7104 43.2342 81.4153 43.4314 81.1666 43.6801L71.7533 53.1201C71.2566 52.6204 70.9778 51.9446 70.9778 51.2401C70.9778 50.5356 71.2566 49.8597 71.7533 49.3601L79.3 41.8134C79.5486 41.5648 79.7458 41.2696 79.8804 40.9447C80.015 40.6199 80.0842 40.2717 80.0842 39.9201C80.0842 39.5684 80.015 39.2203 79.8804 38.8954C79.7458 38.5705 79.5486 38.2754 79.3 38.0267C79.0513 37.7781 78.7562 37.5809 78.4313 37.4463C78.1064 37.3118 77.7583 37.2425 77.4066 37.2425C77.055 37.2425 76.7068 37.3118 76.382 37.4463C76.0571 37.5809 75.7619 37.7781 75.5133 38.0267L67.9666 45.5734C66.4685 47.0734 65.627 49.1067 65.627 51.2267C65.627 53.3467 66.4685 55.3801 67.9666 56.8801L64.5 60.3201L42.4466 38.1867L42.18 38.0267C42.0436 37.9078 41.891 37.809 41.7266 37.7334L41.2466 37.5467L40.9266 37.3334H40.74H40.2066C40.0476 37.308 39.8856 37.308 39.7266 37.3334C39.5652 37.3922 39.4126 37.4729 39.2733 37.5734L38.8466 37.8401H38.66L38.5 38.1067C38.3871 38.2475 38.2888 38.3994 38.2066 38.5601C38.1285 38.7227 38.066 38.8923 38.02 39.0667C38.02 39.0667 38.02 39.2534 38.02 39.3601C37.3729 43.8705 37.7854 48.4697 39.225 52.7929C40.6645 57.1162 43.0914 61.0446 46.3133 64.2667L53.3533 71.2801L38.9266 85.6801C38.6767 85.928 38.4783 86.2229 38.3429 86.5479C38.2075 86.8728 38.1378 87.2214 38.1378 87.5734C38.1378 87.9254 38.2075 88.274 38.3429 88.5989C38.4783 88.9239 38.6767 89.2188 38.9266 89.4667C39.1758 89.7139 39.4713 89.9094 39.7962 90.0421C40.1211 90.1748 40.469 90.2421 40.82 90.2401C41.1709 90.2421 41.5188 90.1748 41.8437 90.0421C42.1686 89.9094 42.4641 89.7139 42.7133 89.4667L58.9 73.5201L66.4466 65.9734L71.78 60.6401C73.2679 62.1441 75.291 62.9974 77.4066 63.0134ZM57.0066 67.8667L49.9933 60.8267C46.1492 56.93 43.7422 51.8434 43.1666 46.4001L60.7933 64.0001L57.0066 67.8667ZM73.6466 69.3867C73.1445 68.8811 72.462 68.5956 71.7494 68.5931C71.0368 68.5906 70.3523 68.8713 69.8466 69.3734C69.341 69.8755 69.0555 70.558 69.053 71.2706C69.0505 71.9833 69.3312 72.6677 69.8333 73.1734L86.6333 89.9734C87.1426 90.4369 87.8116 90.6853 88.5 90.6667C88.8509 90.6688 89.1988 90.6015 89.5237 90.4688C89.8486 90.3361 90.1441 90.1405 90.3933 89.8934C90.6432 89.6455 90.8416 89.3506 90.977 89.0256C91.1124 88.7006 91.1821 88.3521 91.1821 88.0001C91.1821 87.648 91.1124 87.2995 90.977 86.9745C90.8416 86.6496 90.6432 86.3546 90.3933 86.1067L73.6466 69.3867Z" fill="black"/>
</svg>
