<svg width="129" height="128" viewBox="0 0 129 128" fill="none" xmlns="http://www.w3.org/2000/svg">
    <rect x="0.5" width="128" height="128" rx="64" fill="#F8BE66"/>
    <path d="M90.26 59.3332L66.26 37.9999C65.7734 37.5724 65.1478 37.3366 64.5 37.3366C63.8523 37.3366 63.2267 37.5724 62.74 37.9999L38.74 59.3332C38.3321 59.6941 38.0445 60.1711 37.9158 60.7003C37.787 61.2295 37.8234 61.7854 38.02 62.2932C38.2134 62.7944 38.5536 63.2255 38.9962 63.53C39.4387 63.8345 39.9629 63.9983 40.5 63.9999H43.1667V87.9999C43.1667 88.7071 43.4477 89.3854 43.9477 89.8855C44.4478 90.3856 45.1261 90.6666 45.8334 90.6666H83.1667C83.8739 90.6666 84.5522 90.3856 85.0523 89.8855C85.5524 89.3854 85.8334 88.7071 85.8334 87.9999V63.9999H88.5C89.0372 63.9983 89.5614 63.8345 90.0039 63.53C90.4464 63.2255 90.7866 62.7944 90.98 62.2932C91.1766 61.7854 91.213 61.2295 91.0843 60.7003C90.9556 60.1711 90.6679 59.6941 90.26 59.3332ZM67.1667 85.3332H61.8334V77.3332C61.8334 76.626 62.1143 75.9477 62.6144 75.4476C63.1145 74.9475 63.7928 74.6666 64.5 74.6666C65.2073 74.6666 65.8856 74.9475 66.3856 75.4476C66.8857 75.9477 67.1667 76.626 67.1667 77.3332V85.3332ZM80.5 85.3332H72.5V77.3332C72.5 75.2115 71.6572 73.1767 70.1569 71.6764C68.6566 70.1761 66.6218 69.3332 64.5 69.3332C62.3783 69.3332 60.3435 70.1761 58.8432 71.6764C57.3429 73.1767 56.5 75.2115 56.5 77.3332V85.3332H48.5V63.9999H80.5V85.3332ZM47.5134 58.6666L64.5 43.5732L81.4867 58.6666H47.5134Z" fill="black"/>
</svg>
