<svg width="129" height="128" viewBox="0 0 129 128" fill="none" xmlns="http://www.w3.org/2000/svg">
    <rect x="0.5" width="128" height="128" rx="64" fill="#CDB7FF"/>
    <path d="M55.1667 77.3333C55.8739 77.3333 56.5522 77.0524 57.0523 76.5523C57.5524 76.0522 57.8333 75.3739 57.8333 74.6666C57.8464 74.4891 57.8464 74.3108 57.8333 74.1333C57.8041 73.9663 57.7502 73.8045 57.6733 73.6533C57.615 73.4834 57.5343 73.322 57.4333 73.1733L57.1133 72.7733C56.8597 72.5305 56.5607 72.3402 56.2333 72.2133C55.7348 71.9786 55.1759 71.9041 54.6333 72L54.1533 72.16L53.6733 72.4C53.5336 72.4984 53.4001 72.6053 53.2733 72.72L52.9533 73.12C52.8524 73.2686 52.7717 73.43 52.7133 73.6C52.6364 73.7511 52.5825 73.9129 52.5533 74.08C52.5402 74.2575 52.5402 74.4358 52.5533 74.6133C52.5533 75.3206 52.8343 75.9988 53.3344 76.4989C53.8345 76.999 54.5128 77.28 55.22 77.28L55.1667 77.3333ZM76.5 77.3333C77.2072 77.3333 77.8855 77.0524 78.3856 76.5523C78.8857 76.0522 79.1667 75.3739 79.1667 74.6666C79.1798 74.4891 79.1798 74.3108 79.1667 74.1333C79.1375 73.9663 79.0836 73.8045 79.0067 73.6533C78.9483 73.4834 78.8676 73.322 78.7667 73.1733L78.4467 72.7733C78.1875 72.5378 77.8898 72.3484 77.5667 72.2133C76.9174 71.9466 76.1892 71.9466 75.54 72.2133C75.2168 72.3484 74.9192 72.5378 74.66 72.7733L74.34 73.1733C74.2391 73.322 74.1584 73.4834 74.1 73.6533C74.0231 73.8045 73.9692 73.9663 73.94 74.1333C73.9269 74.3108 73.9269 74.4891 73.94 74.6666C73.9429 75.3662 74.2207 76.0366 74.7133 76.5333C75.1859 77.0168 75.8246 77.3028 76.5 77.3333ZM68.5 45.3333H63.1667C62.4594 45.3333 61.7811 45.6143 61.281 46.1144C60.781 46.6145 60.5 47.2927 60.5 48C60.5 48.7072 60.781 49.3855 61.281 49.8856C61.7811 50.3857 62.4594 50.6666 63.1667 50.6666H68.5C69.2072 50.6666 69.8855 50.3857 70.3856 49.8856C70.8857 49.3855 71.1667 48.7072 71.1667 48C71.1667 47.2927 70.8857 46.6145 70.3856 46.1144C69.8855 45.6143 69.2072 45.3333 68.5 45.3333ZM81.8333 37.3333H49.8333C47.7116 37.3333 45.6768 38.1762 44.1765 39.6765C42.6762 41.1767 41.8333 43.2116 41.8333 45.3333V77.3333C41.838 78.9838 42.353 80.5925 43.3078 81.9388C44.2627 83.2851 45.6105 84.3031 47.1667 84.8533V88C47.1667 88.7072 47.4476 89.3855 47.9477 89.8856C48.4478 90.3857 49.1261 90.6666 49.8333 90.6666C50.5406 90.6666 51.2189 90.3857 51.719 89.8856C52.219 89.3855 52.5 88.7072 52.5 88V85.3333H79.1667V88C79.1667 88.7072 79.4476 89.3855 79.9477 89.8856C80.4478 90.3857 81.1261 90.6666 81.8333 90.6666C82.5406 90.6666 83.2189 90.3857 83.719 89.8856C84.2191 89.3855 84.5 88.7072 84.5 88V84.8533C86.0561 84.3031 87.404 83.2851 88.3588 81.9388C89.3137 80.5925 89.8287 78.9838 89.8333 77.3333V45.3333C89.8333 43.2116 88.9905 41.1767 87.4902 39.6765C85.9899 38.1762 83.9551 37.3333 81.8333 37.3333ZM84.5 77.3333C84.5 78.0406 84.2191 78.7188 83.719 79.2189C83.2189 79.719 82.5406 80 81.8333 80H49.8333C49.1261 80 48.4478 79.719 47.9477 79.2189C47.4476 78.7188 47.1667 78.0406 47.1667 77.3333V69.3333H84.5V77.3333ZM84.5 64H47.1667V45.3333C47.1667 44.6261 47.4476 43.9478 47.9477 43.4477C48.4478 42.9476 49.1261 42.6666 49.8333 42.6666H81.8333C82.5406 42.6666 83.2189 42.9476 83.719 43.4477C84.2191 43.9478 84.5 44.6261 84.5 45.3333V64Z" fill="black"/>
</svg>
