<svg width="233" height="81" viewBox="0 0 233 81" fill="none" xmlns="http://www.w3.org/2000/svg">
    <g opacity="0.2">
        <path d="M0 61.2323C10.4549 61.2323 18.9302 69.7077 18.9302 80.1625V80.6884H0V61.2323Z" fill="white"/>
        <path d="M18.9312 60.1808C29.9669 60.1808 38.9131 69.127 38.9131 80.1627V80.6885H18.9312V60.1808Z" fill="white"/>
        <path d="M57.8413 20.2169C68.877 20.2169 77.8232 29.1631 77.8232 40.1988V40.7247H57.8413V20.2169Z" fill="white"/>
        <path d="M38.9131 40.7246C60.4037 40.7246 77.8253 58.1462 77.8253 79.6368V80.6885H38.9131V40.7246Z" fill="white"/>
        <path d="M77.8232 40.7246C99.3138 40.7246 116.735 58.1462 116.735 79.6368V80.6885H77.8232V40.7246Z" fill="white"/>
        <path d="M193.509 40.1987C215.29 40.1987 232.947 57.8557 232.947 79.6367V80.6884H193.509V40.1987Z" fill="white"/>
        <path d="M116.736 1.81245C159.137 1.81245 193.509 36.1848 193.509 78.5852V80.6885H116.736V1.81245Z" fill="white"/>
        <path d="M77.8232 0.760742C99.3138 0.760742 116.735 18.1823 116.735 39.6729V40.7246H77.8232V0.760742Z" fill="white"/>
    </g>
</svg>
