<svg width="80" height="80" viewBox="0 0 80 80" fill="none" xmlns="http://www.w3.org/2000/svg">
    <g clip-path="url(#clip0_1813_46038)">
        <path d="M16.5 -35.375C27.6993 -35.375 38.5857 -31.6796 47.4707 -24.8619C56.3558 -18.0441 62.7429 -8.48514 65.6415 2.33258C68.5401 13.1503 67.7882 24.6222 63.5024 34.969C59.2166 45.3158 51.6364 53.9594 41.9375 59.559L16.5 15.5V-35.375Z" fill="#AB87FF"/>
        <path d="M41.9375 59.559C30.2523 66.3055 16.3657 68.1337 3.33258 64.6415C-9.70055 61.1493 -20.8126 52.6227 -27.559 40.9375L16.5 15.5L41.9375 59.559Z" fill="#36A9E1"/>
        <path d="M-27.559 40.9375C-32.0243 33.2035 -34.375 24.4304 -34.375 15.5L16.5 15.5L-27.559 40.9375Z" fill="#F39200"/>
        <path d="M-34.375 15.5C-34.375 2.00711 -29.015 -10.9331 -19.4741 -20.4741C-9.93314 -30.015 3.00711 -35.375 16.5 -35.375V15.5L-34.375 15.5Z" fill="#DE768A"/>
    </g>
    <defs>
        <clipPath id="clip0_1813_46038">
            <rect width="80" height="80" fill="white"/>
        </clipPath>
    </defs>
</svg>
