<svg width="740" height="370" viewBox="0 0 740 370" fill="none" xmlns="http://www.w3.org/2000/svg">
    <g opacity="0.5">
        <path d="M740 120.887H738.541C672.429 120.887 618.835 67.2931 618.835 1.1814H740V120.887Z" fill="#EBADB9"/>
        <path d="M616.672 120.887H615.212C549.101 120.887 495.507 67.2926 495.507 1.18091H616.672V120.887Z" fill="#EBADB9"/>
        <path d="M493.344 120.887H491.884C425.773 120.887 372.178 67.2926 372.178 1.18091H493.344V120.887Z" fill="#EBADB9"/>
        <path d="M740 247.124C673.082 247.124 618.835 192.877 618.835 125.959V123.065H740V247.124Z" fill="#EBADB9"/>
        <path d="M616.672 247.125C549.754 247.125 495.507 192.877 495.507 125.959V123.066H616.672V247.125Z" fill="#EBADB9"/>
        <path d="M493.344 247.125C426.426 247.125 372.178 192.877 372.178 125.959V123.066H493.344V247.125Z" fill="#EBADB9"/>
        <path d="M740 369.005H738.541C672.429 369.005 618.835 315.411 618.835 249.299H740V369.005Z" fill="#EBADB9"/>
        <path d="M616.672 369.005H615.212C549.101 369.005 495.507 315.411 495.507 249.299H616.672V369.005Z" fill="#EBADB9"/>
        <path d="M370 -1H0.000244141V369C204.345 369 370 203.345 370 -1Z" fill="#EBADB9"/>
    </g>
</svg>
