<svg width="323" height="161" viewBox="0 0 323 161" fill="none" xmlns="http://www.w3.org/2000/svg">
<path d="M322.976 52.3965H322.338C293.4 52.3965 269.941 28.9379 269.941 0.000156403H322.976V52.3965Z" fill="#FAFAFA"/>
<path d="M268.994 52.3963H268.355C239.418 52.3963 215.959 28.9377 215.959 -2.67029e-05H268.994V52.3963Z" fill="#FAFAFA"/>
<path d="M215.012 52.3963H214.373C185.436 52.3963 161.977 28.9377 161.977 -2.67029e-05H215.012V52.3963Z" fill="#FAFAFA"/>
<path d="M322.976 107.651C293.686 107.651 269.941 83.9068 269.941 54.6163V53.3498H322.976V107.651Z" fill="#FAFAFA"/>
<path d="M268.994 107.652C239.704 107.652 215.959 83.907 215.959 54.6165V53.35H268.994V107.652Z" fill="#FAFAFA"/>
<path d="M215.012 107.652C185.722 107.652 161.977 83.907 161.977 54.6165V53.35H215.012V107.652Z" fill="#FAFAFA"/>
<path d="M322.977 161H322.338C293.4 161 269.941 137.541 269.941 108.604H322.977V161Z" fill="#FAFAFA"/>
<path d="M268.994 161H268.355C239.418 161 215.959 137.541 215.959 108.604H268.994V161Z" fill="#FAFAFA"/>
<path d="M161 0H-6.10352e-05V161C88.9178 161 161 88.9178 161 0Z" fill="#FAFAFA"/>
</svg>

