<svg width="375" height="376" viewBox="0 0 375 376" fill="none" xmlns="http://www.w3.org/2000/svg">
    <path opacity="0.5" d="M186.95 188.078H4.57764e-05V375.028H16.3035C110.549 375.028 186.95 298.627 186.95 204.382V188.078Z" fill="white"/>
    <path opacity="0.5" d="M375.001 375.027H188.051V188.077H204.354C298.6 188.077 375.001 264.478 375.001 358.724V375.027Z" fill="white"/>
    <g opacity="0.5">
        <path d="M188.052 126.469H188.789C222.194 126.469 249.273 153.548 249.273 186.953H188.052V126.469Z" fill="white"/>
        <path d="M250.366 126.469H251.104C284.508 126.469 311.588 153.548 311.588 186.953H250.366V126.469Z" fill="white"/>
        <path d="M312.681 126.469H313.418C346.822 126.469 373.902 153.548 373.902 186.953H312.681V126.469Z" fill="white"/>
        <path d="M188.052 62.6836C221.863 62.6836 249.273 90.0933 249.273 123.905V125.367H188.052V62.6836Z" fill="white"/>
        <path d="M250.366 62.6836C284.178 62.6836 311.588 90.0933 311.588 123.905V125.367H250.366V62.6836Z" fill="white"/>
        <path d="M312.681 62.6836C346.492 62.6836 373.902 90.0933 373.902 123.905V125.367H312.681V62.6836Z" fill="white"/>
        <path d="M188.052 1.10156H188.789C222.194 1.10156 249.273 28.1811 249.273 61.5854H188.052V1.10156Z" fill="white"/>
        <path d="M250.366 1.10156H251.104C284.508 1.10156 311.588 28.1811 311.588 61.5854H250.366V1.10156Z" fill="white"/>
        <path d="M0.000976562 0H186.951V186.95H170.648C76.4021 186.95 0.000976562 110.549 0.000976562 16.3034V0Z" fill="white"/>
    </g>
</svg>
