<svg width="65" height="64" viewBox="0 0 65 64" fill="none" xmlns="http://www.w3.org/2000/svg">
    <path d="M56.3829 12.2928C55.0209 10.9302 53.4037 9.84922 51.6238 9.11172C49.844 8.37422 47.9362 7.99463 46.0096 7.99463C44.0829 7.99463 42.1752 8.37422 40.3953 9.11172C38.6154 9.84922 36.9982 10.9302 35.6362 12.2928L32.8096 15.1195L29.9829 12.2928C27.2317 9.54165 23.5003 7.99605 19.6096 7.99605C15.7188 7.99605 11.9874 9.54165 9.23623 12.2928C6.48505 15.044 4.93945 18.7754 4.93945 22.6662C4.93945 26.5569 6.48505 30.2883 9.23623 33.0395L12.0629 35.8662L32.8096 56.6128L53.5562 35.8662L56.3829 33.0395C57.7456 31.6775 58.8265 30.0603 59.564 28.2804C60.3015 26.5006 60.6811 24.5928 60.6811 22.6662C60.6811 20.7395 60.3015 18.8318 59.564 17.0519C58.8265 15.272 57.7456 13.6548 56.3829 12.2928V12.2928Z"
          stroke="white" stroke-width="5.33333" stroke-linecap="round" stroke-linejoin="round"/>
</svg>
