<svg width="24" height="23" viewBox="0 0 24 23" fill="none" xmlns="http://www.w3.org/2000/svg">
    <path d="M20.1068 11.6762H22.3526" stroke="black" stroke-width="2" stroke-linecap="round" stroke-linejoin="round"/>
    <path d="M1.00006 11.6763H3.24593" stroke="black" stroke-width="2" stroke-linecap="round" stroke-linejoin="round"/>
    <path d="M15.6823 6.55727C14.9607 5.94354 14.1109 5.49841 13.2004 5.26236C12.2899 5.02631 11.3457 5.00608 10.4217 5.20166C9.20102 5.45795 8.07472 6.08517 7.19795 7.0024C6.32119 7.91963 5.72094 9.0864 5.48489 10.3543C5.30954 11.3053 5.34326 12.2832 5.57931 13.2207C5.81536 14.1581 6.247 15.0282 6.8405 15.7768C7.39354 16.4242 7.71052 17.2538 7.7375 18.1171L7.7375 20.5585C7.7375 21.206 7.98704 21.8265 8.43217 22.2851C8.87729 22.7437 9.47754 23 10.098 23H13.2476C13.8748 23 14.4751 22.7437 14.9135 22.2851C15.3586 21.8265 15.6081 21.206 15.6081 20.5585V18.2655C15.6351 17.3145 15.9723 16.3973 16.5658 15.6689C17.6112 14.3335 18.0968 12.6272 17.9349 10.9141C17.7663 9.2078 16.957 7.63637 15.6756 6.53704V6.55053L15.6823 6.55727ZM14.0367 20.5585C14.0367 20.7743 13.9558 20.9834 13.8074 21.1318C13.659 21.2869 13.4567 21.3678 13.2476 21.3678H10.098C9.88894 21.3678 9.68661 21.2802 9.53824 21.1318C9.38986 20.9767 9.30893 20.7743 9.30893 20.5585V19.7425H14.03V20.5585H14.0367ZM15.3519 14.6572C14.5628 15.6284 14.0974 16.8424 14.0367 18.1103H12.4653V15.6689C12.4653 15.4531 12.3843 15.244 12.236 15.0956C12.0876 14.9405 11.8853 14.8596 11.6829 14.8596C11.4806 14.8596 11.2715 14.9472 11.1299 15.0956C10.9815 15.2507 10.9006 15.4531 10.9006 15.6689V18.1103H9.32916C9.30893 16.8626 8.8638 15.6621 8.06797 14.7179C7.54191 14.0705 7.19121 13.2881 7.04958 12.4586C6.9012 11.629 6.96864 10.7725 7.23842 9.96991C7.50819 9.17408 7.97355 8.45918 8.58729 7.90614C9.20102 7.34636 9.9429 6.96868 10.7387 6.79333C11.4267 6.64495 12.1348 6.65844 12.816 6.83379C13.4972 7.00915 14.1311 7.33287 14.6774 7.79149C15.2237 8.2501 15.6554 8.83012 15.9588 9.48432C16.2623 10.1385 16.4175 10.8602 16.4175 11.5818C16.4175 12.7014 16.0533 13.7805 15.3721 14.6437L15.3519 14.6572Z" fill="black"/>
    <path d="M8.97867 11.6763C8.97867 10.5972 9.7138 8.97852 11.6764 8.97852C13.639 8.97852 14.3741 10.5972 14.3741 11.6763" stroke="black" stroke-width="2" stroke-linecap="round"/>
    <path d="M5.51885 5.51879L3.92719 3.92712" stroke="black" stroke-width="2" stroke-linecap="round" stroke-linejoin="round"/>
    <path d="M19.4255 19.4255L17.8339 17.8339" stroke="black" stroke-width="2" stroke-linecap="round" stroke-linejoin="round"/>
    <path d="M17.8407 5.51873L19.4323 3.92706" stroke="black" stroke-width="2" stroke-linecap="round" stroke-linejoin="round"/>
    <path d="M3.92706 19.4255L5.51873 17.8339" stroke="black" stroke-width="2" stroke-linecap="round" stroke-linejoin="round"/>
    <path d="M11.6763 3.24587V1" stroke="black" stroke-width="2" stroke-linecap="round" stroke-linejoin="round"/>
</svg>
