<svg width="102" height="103" viewBox="0 0 102 103" fill="none" xmlns="http://www.w3.org/2000/svg">
    <g filter="url(#filter0_dd_269_634)">
        <path d="M89.9961 37.2299C89.9307 39.5642 89.7264 41.8925 89.3842 44.2025C89.216 45.7333 89.1166 47.3023 88.8413 48.7948C88.2669 51.9741 87.4721 55.1095 86.4628 58.1783C85.698 60.4745 84.329 62.3497 83.0289 64.3014C81.2699 66.9649 78.8609 68.8937 76.3601 70.7918C75.5953 71.3888 74.8305 72.0088 74.0657 72.6441C72.697 73.669 71.1595 74.4462 69.5229 74.9402C66.4679 76.1112 63.3148 77.0077 60.1008 77.619C58.3196 77.9515 56.5185 78.1663 54.7091 78.262C53.236 78.2467 51.7661 78.1213 50.3117 77.8869C46.4419 77.4277 42.6639 76.6087 38.84 75.7821C37.1909 75.438 35.5977 74.8661 34.106 74.083C31.4352 72.6445 28.8987 70.9693 26.527 69.0774C24.9974 67.8451 23.5138 66.4598 21.9383 65.1739C21.4565 64.7683 20.9441 64.4086 20.4088 64.0182C18.0459 62.2974 16.2466 59.9133 15.2389 57.168C14.8259 56.02 14.52 54.8719 14.1987 53.6626C13.9094 52.5005 13.5545 51.3557 13.1357 50.2337C12.5213 48.3153 12.1688 46.3226 12.0879 44.3096C11.805 41.6538 12.2715 39.0438 12.5468 36.4262C12.7686 34.4056 13.0287 32.385 13.2122 30.3568C13.4912 28.1926 14.004 26.0651 14.7418 24.0117C16.0801 19.7715 18.6727 16.289 21.3265 12.8295C22.1831 11.7121 22.9708 10.5334 23.8961 9.4695C25.3949 7.81133 27.1292 6.38266 29.0431 5.22929C31.5388 3.5338 34.2299 2.14608 37.058 1.09624C38.0882 0.724449 39.1685 0.510283 40.2624 0.460969C41.7385 0.415047 43.2069 0.277271 44.6829 0.261963C47.1684 0.261963 49.631 0.836005 52.1318 0.86662C55.3512 0.872243 58.5661 1.10499 61.7527 1.56312C64.3432 2.02778 66.8693 2.79855 69.2782 3.85926C71.2437 4.67057 73.2321 5.42829 75.2129 6.15541C76.566 6.60154 77.8643 7.1998 79.0827 7.93873C79.3717 8.11197 79.6301 8.33179 79.8475 8.58931C80.574 9.53073 81.66 10.0665 82.4094 11.0079C83.5779 12.5863 84.5607 14.2942 85.3386 16.0977C86.5316 18.5852 87.0593 21.2793 87.7094 23.9275C88.3977 26.6982 88.9942 29.4919 89.5525 32.2932C89.8779 33.9179 90.0267 35.5731 89.9961 37.2299Z" fill="#F8BE66"/>
        <path d="M74.8845 13.3169C73.1005 12.1619 71.1242 11.3781 69.0619 11.0076C66.3867 10.2511 63.5953 10.0678 60.8521 10.4688C58.6805 11.0278 56.5863 11.8816 54.6219 13.009C53.9359 13.335 53.3471 13.8529 52.9187 14.5066C52.4904 15.1604 52.2388 15.9254 52.191 16.7192C51.9363 18.5155 51.9363 20.3419 52.191 22.1382C53.1226 26.0177 54.2581 29.8356 58.6104 30.8671C59.7714 31.1711 60.9671 31.3007 62.1622 31.252C63.0842 31.2711 64.0057 31.1938 64.9133 31.0211C67.5606 30.7782 70.0603 29.6267 72.0314 27.7419C74.6344 25.1769 76.3467 21.7611 76.8933 18.0431C77.0957 17.1314 77.0086 16.1745 76.6455 15.3203C76.2825 14.4661 75.6636 13.7621 74.8845 13.3169Z" fill="white"/>
        <path d="M48.8922 12.9538C48.5689 12.6344 48.149 12.4164 47.6895 12.3296C43.0638 11.2843 38.5306 10.0358 33.7044 10.2971C32.2805 10.3925 30.9157 10.8712 29.7726 11.6763C29.5105 11.8505 26.6888 14.3039 27.0126 14.4491C24.7923 17.8317 24.1447 21.2868 26.4267 24.9307C27.5985 26.8035 28.7395 28.7634 31.0524 29.4457C34.2606 30.3797 37.6712 30.5147 40.9514 29.8377C46.5947 28.6763 49.8173 24.9162 51.5288 19.9948C52.7007 16.6558 51.6368 14.3039 48.8922 12.9538Z" fill="white"/>
        <path d="M71.9969 19.0265C72.0817 22.0855 70.41 24.5185 68.4597 26.8334C68.3406 26.9731 68.1902 27.0841 68.02 27.1578C67.8499 27.2315 67.6645 27.266 67.4784 27.2586C66.0962 27.296 64.7239 27.0211 63.4687 26.4555C60.307 24.9319 58.7322 22.2863 57.327 19.4399C56.891 18.2362 56.891 16.9232 57.327 15.7195C57.4542 15.342 57.6961 15.0111 58.0206 14.7706C58.3451 14.5302 58.7369 14.3916 59.1441 14.3731C60.5302 14.1952 61.9365 14.2311 63.3113 14.4794C64.2077 14.6448 64.4379 15.4361 64.7649 16.0975C65.092 16.7589 65.1889 16.7589 65.6492 16.2865C66.6062 15.318 67.8782 15.5306 69.0411 15.566C71.7789 15.6369 72.0454 15.9558 71.9485 18.6132L71.9969 19.0265Z" fill="#DE768A"/>
        <path d="M30.4337 15.3852C30.5249 15.3561 30.6086 15.3086 30.6795 15.246C30.7503 15.1833 30.8067 15.1069 30.8449 15.0218C32.6147 14.4311 34.5102 14.2826 36.3552 14.5902C36.7714 14.6152 37.1764 14.7302 37.5404 14.9268C37.9044 15.1234 38.218 15.3965 38.4583 15.726C38.6815 16.0099 38.94 16.2939 39.2455 15.7828C39.5679 15.2352 40.0599 14.7993 40.6522 14.5364C41.2445 14.2736 41.9073 14.197 42.547 14.3176C43.2519 14.3176 43.9686 14.3971 44.6618 14.4879C45.355 14.5788 45.9777 14.8968 45.9659 15.7032C45.9659 17.4978 46.2126 19.3264 45.3785 21.0415C44.041 22.6773 42.5968 24.229 41.0548 25.6869C40.6993 26.0407 40.2138 26.2448 39.7037 26.2548C38.0095 26.3295 36.3433 25.818 35.004 24.8123C33.4071 23.8063 32.043 22.4914 30.9977 20.9506C30.5934 20.0698 30.2786 19.1531 30.0577 18.2134C29.9125 17.2552 30.0426 16.2768 30.4337 15.3852Z" fill="#DE768A"/>
        <path d="M43.4287 42.112C43.8035 42.0432 43.8876 41.6911 44.0405 41.4385C44.4129 40.8214 45.011 40.3739 45.7077 40.1909C46.4879 39.8738 47.3314 39.7438 48.1708 39.8116C49.0101 39.8794 49.8219 40.143 50.5412 40.5813C50.9082 40.8262 51.0612 40.6578 51.2142 40.367C51.4913 39.753 51.9035 39.2097 52.42 38.7776C52.9365 38.3455 53.5439 38.0359 54.1968 37.8718C55.2752 37.6346 56.407 37.558 57.3171 38.4688C57.5771 38.7291 57.7683 39.0888 58.1736 39.1883C56.8123 40.7191 55.6499 42.4105 53.9521 43.6505C52.5548 44.6558 50.8577 45.1564 49.1389 45.0702C47.4202 44.9839 45.7816 44.3161 44.4918 43.1759C44.1247 42.8315 43.7805 42.4641 43.4287 42.112Z" fill="#DE768A"/>
        <path d="M61.7069 33.6164C60.1402 33.4417 58.5644 33.3625 56.9882 33.3791C53.9902 33.4403 50.9923 33.5832 47.9944 33.8077C45.3174 34.054 42.6265 34.1128 39.9413 33.9838C39.7938 33.9684 39.6451 33.9684 39.4977 33.9838C39.3065 34.022 39.1535 34.1062 39.1612 34.3588C39.1612 35.3844 39.1612 36.41 39.2606 37.4203C39.334 38.792 39.7436 40.1246 40.4531 41.3005C41.1627 42.4765 42.1504 43.4596 43.3292 44.1633C44.9936 45.1541 46.8992 45.6653 48.8356 45.6405C49.5997 45.6872 50.3659 45.6872 51.13 45.6405C52.4904 45.6331 53.8328 45.3278 55.0628 44.746C56.2928 44.1642 57.3807 43.3201 58.2501 42.2728C58.9537 41.5075 59.6037 40.6655 60.2844 39.8619C61.5998 38.3311 62.051 36.4406 62.464 34.5501C62.6093 33.8843 62.3952 33.6853 61.7069 33.6164ZM59.9708 34.5808C59.6698 36.2122 59.0597 37.7709 58.1736 39.173C56.8123 40.7038 55.6498 42.3953 53.952 43.6352C52.5547 44.6406 50.8576 45.1411 49.1389 45.0549C47.4201 44.9687 45.7816 44.3008 44.4917 43.1607C44.1246 42.8162 43.7804 42.4489 43.4286 42.0968C42.4636 40.8152 41.8898 39.2814 41.7767 37.6805C41.6798 36.9728 41.6288 36.2595 41.6238 35.5451C41.6058 35.4379 41.6126 35.3279 41.6438 35.2236C41.6749 35.1194 41.7295 35.0237 41.8033 34.9439C41.8772 34.8641 41.9683 34.8023 42.0698 34.7632C42.1712 34.7241 42.2803 34.7088 42.3886 34.7185C43.7346 34.6343 45.0729 34.5348 46.4113 34.5195C48.2161 34.5195 50.0057 34.2593 51.8106 34.1904C54.3831 33.994 56.9649 33.9505 59.5426 34.0603C59.9173 34.1062 60.055 34.244 59.9708 34.5808Z" fill="#620000"/>
    </g>
    <defs>
        <filter id="filter0_dd_269_634" x="0" y="0.261963" width="102" height="102" filterUnits="userSpaceOnUse" color-interpolation-filters="sRGB">
            <feFlood flood-opacity="0" result="BackgroundImageFix"/>
            <feColorMatrix in="SourceAlpha" type="matrix" values="0 0 0 0 0 0 0 0 0 0 0 0 0 0 0 0 0 0 127 0" result="hardAlpha"/>
            <feOffset dy="2"/>
            <feComposite in2="hardAlpha" operator="out"/>
            <feColorMatrix type="matrix" values="0 0 0 0 0.453212 0 0 0 0 0.121512 0 0 0 0 0.184692 0 0 0 0.28 0"/>
            <feBlend mode="normal" in2="BackgroundImageFix" result="effect1_dropShadow_269_634"/>
            <feColorMatrix in="SourceAlpha" type="matrix" values="0 0 0 0 0 0 0 0 0 0 0 0 0 0 0 0 0 0 127 0" result="hardAlpha"/>
            <feOffset dy="12"/>
            <feGaussianBlur stdDeviation="6"/>
            <feComposite in2="hardAlpha" operator="out"/>
            <feColorMatrix type="matrix" values="0 0 0 0 0.062346 0 0 0 0 0.090377 0 0 0 0 0.342656 0 0 0 0.16 0"/>
            <feBlend mode="normal" in2="effect1_dropShadow_269_634" result="effect2_dropShadow_269_634"/>
            <feBlend mode="normal" in="SourceGraphic" in2="effect2_dropShadow_269_634" result="shape"/>
        </filter>
    </defs>
</svg>
