<svg width="112" height="112" viewBox="0 0 112 112" fill="none" xmlns="http://www.w3.org/2000/svg">
    <g filter="url(#filter0_d_770_1012)">
        <circle cx="56" cy="50" r="44" fill="#2FAC66"/>
    </g>
    <path d="M57.0801 35.1601C52.7601 39.9121 47.3601 41.4601 45.2001 41.6401C43.0401 48.3001 39.5841 61.5121 43.0401 65.4001C47.1593 70.0341 56.6789 70.7406 65.5133 70.7962C65.5819 70.7988 65.6508 70.8001 65.72 70.8001H73.28C76.2623 70.8001 78.68 68.3825 78.68 65.4001C78.68 64.7249 78.556 64.0786 78.3297 63.4827C79.8386 62.5251 81.38 61.3795 81.38 59.4601C81.38 58.3801 80.7161 57.5986 80.4897 57.0027C81.9986 56.0451 83 54.3595 83 52.4401C83 51.2245 82.46 49.7401 81.38 49.2001C82.46 48.6601 83 47.1758 83 45.9601C83 42.9778 80.5823 40.5601 77.6 40.5601H68.96C73.28 28.6801 71.66 21.1201 64.64 21.1201C60.7857 21.1201 60.5127 23.5619 60.1565 26.7472C59.8639 29.3635 59.5153 32.4814 57.0801 35.1601Z" fill="white"/>
    <path d="M71.182 31.8535C71.1659 31.8484 71.1454 31.8696 71.1201 31.9202C71.0559 32.0486 70.992 32.2008 70.9201 32.3721C70.3874 33.6417 69.4166 35.9554 64.6401 37.3202C60.8601 38.4002 57.6201 39.4802 57.0801 41.1002C58.1599 40.5603 59.7795 40.5603 62.4785 40.5603H68.9601C70.1408 37.3133 70.8777 34.3889 71.182 31.8535Z" fill="#F2F5F7"/>
    <path d="M78.0387 67.9559C71.8192 71.0497 46.7385 67.2751 44.66 60.0002L43.8184 66.1743C48.272 70.1147 57.1966 70.744 65.5139 70.7964C65.5824 70.7989 65.6513 70.8002 65.7205 70.8002H73.2805C75.3383 70.8002 77.1273 69.6492 78.0387 67.9559Z" fill="#F2F5F7"/>
    <path d="M29 41C29 39.8954 29.8954 39 31 39H44C45.1046 39 46 39.8954 46 41V67C46 69.7614 43.7614 72 41 72H31C29.8954 72 29 71.1046 29 70V41Z" fill="#D5F3E2"/>
    <path d="M30.091 39.2183C30.4105 66.473 37.6644 73.2065 45.9948 67.2295C45.875 69.8845 43.6846 72.0002 41 72.0002H31C29.8954 72.0002 29 71.1048 29 70.0002V41.0002C29 40.223 29.4434 39.5493 30.091 39.2183Z" fill="#AEE2C5"/>
    <defs>
        <filter id="filter0_d_770_1012" x="0" y="0" width="112" height="112" filterUnits="userSpaceOnUse" color-interpolation-filters="sRGB">
            <feFlood flood-opacity="0" result="BackgroundImageFix"/>
            <feColorMatrix in="SourceAlpha" type="matrix" values="0 0 0 0 0 0 0 0 0 0 0 0 0 0 0 0 0 0 127 0" result="hardAlpha"/>
            <feOffset dy="6"/>
            <feGaussianBlur stdDeviation="6"/>
            <feComposite in2="hardAlpha" operator="out"/>
            <feColorMatrix type="matrix" values="0 0 0 0 0.0627451 0 0 0 0 0.0901961 0 0 0 0 0.341176 0 0 0 0.16 0"/>
            <feBlend mode="normal" in2="BackgroundImageFix" result="effect1_dropShadow_770_1012"/>
            <feBlend mode="normal" in="SourceGraphic" in2="effect1_dropShadow_770_1012" result="shape"/>
        </filter>
    </defs>
</svg>
